<svg width="11" height="14" viewBox="0 0 11 14" fill="none" xmlns="http://www.w3.org/2000/svg">
<path d="M8.01855 3.71094L8.03418 3.71289H8.05078C8.45548 3.72752 8.85166 3.83608 9.20703 4.03027C9.41922 4.14622 9.61289 4.29151 9.78418 4.45996C9.48141 4.72147 9.2241 5.03329 9.02539 5.38379C8.73162 5.90201 8.57459 6.48636 8.56934 7.08203L9.06934 7.08691L8.56934 7.08887C8.57192 7.76082 8.77112 8.41758 9.14258 8.97754C9.42648 9.40544 9.80237 9.76113 10.2393 10.0234C10.0528 10.5074 9.81283 10.9693 9.52148 11.3994C9.24144 11.8026 8.97736 12.1618 8.69238 12.4238C8.41162 12.682 8.15205 12.8073 7.88379 12.8135C7.57136 12.8206 7.36774 12.7334 7.0498 12.5977C6.72077 12.4571 6.3107 12.2872 5.69629 12.2871C5.08571 12.2871 4.68421 12.4457 4.35254 12.5879C4.03434 12.7243 3.82421 12.8213 3.49023 12.834C3.24145 12.8434 2.97936 12.7223 2.68262 12.4414C2.38556 12.1601 2.11333 11.7744 1.84668 11.3711L1.8418 11.3633L1.83594 11.3564C1.2934 10.595 0.810122 9.49393 0.604492 8.3457C0.411099 7.26551 0.472819 6.19947 0.899414 5.34375L0.989258 5.17578L0.993164 5.16895C1.2263 4.74897 1.56474 4.39696 1.97461 4.14648C2.38171 3.89774 2.84561 3.75667 3.32227 3.73926L3.32324 3.74023C3.64871 3.73523 3.97967 3.84419 4.35059 3.99023C4.52226 4.05784 4.72035 4.14049 4.90039 4.20117C5.08141 4.26216 5.29561 4.32028 5.51562 4.32031C5.74561 4.32031 5.97875 4.24902 6.16895 4.18164C6.3513 4.11704 6.59898 4.01465 6.78613 3.94434C7.2129 3.78402 7.62079 3.67014 8.01855 3.71094ZM7.56641 0.615234C7.54582 0.737189 7.51965 0.85865 7.48047 0.976562C7.37999 1.27884 7.22044 1.5582 7.01172 1.79883L7.38867 2.12695L6.99512 1.81934C6.81013 2.05641 6.57253 2.24715 6.30176 2.37793C6.18704 2.43333 6.0668 2.47385 5.94434 2.50586C5.96272 2.37872 5.98956 2.25271 6.0293 2.12988C6.12315 1.83986 6.27431 1.57144 6.47363 1.34082C6.76744 1.00135 7.1467 0.7532 7.56641 0.615234Z" fill="black" stroke="#545454"/>
</svg>
