<svg width="16" height="16" viewBox="0 0 16 16" fill="none" xmlns="http://www.w3.org/2000/svg">
<path d="M14.8242 6.76337C14.9009 7.21345 14.9434 7.68111 14.9434 8.16669C14.9434 10.3618 14.1614 12.204 12.8135 13.4597H10.5801V11.7663C11.3538 11.2323 11.8703 10.4466 12.042 9.52118L12.0635 9.40594H8.09668V6.76337H14.8242Z" fill="#1F8DED" stroke="#545454" stroke-width="0.194175"/>
<path d="M3.83008 9.48999C4.43779 11.226 6.07049 12.5134 8.00098 12.5134C8.97576 12.5134 9.81258 12.2618 10.4775 11.8337L12.7002 13.5613C11.5143 14.6158 9.91191 15.236 8.00098 15.2361C5.17993 15.2361 2.73826 13.6233 1.54395 11.2683V9.48999H3.83008Z" fill="#34A853" stroke="#545454" stroke-width="0.194175"/>
<path d="M3.79883 4.80334V6.59241C3.6525 7.03677 3.56938 7.51125 3.56934 7.99963C3.56934 8.46986 3.64787 8.92706 3.78418 9.35706L1.48242 11.1412C1.02506 10.191 0.762695 9.12474 0.762695 7.99963C0.762306 6.89072 1.01924 5.79778 1.50879 4.80334H3.79883Z" fill="#FFE353" stroke="#545454" stroke-width="0.194175"/>
<path d="M8.0006 3.58335C9.07727 3.58335 10.0439 3.95335 10.8039 4.68002L12.9073 2.57669C11.6373 1.39335 9.97727 0.666687 8.0006 0.666687C5.13393 0.666687 2.65393 2.31002 1.44727 4.70669L3.89727 6.60669C4.47393 4.87335 6.0906 3.58335 8.0006 3.58335Z" fill="#BB291C"/>
</svg>
