<svg width="140" height="69" viewBox="0 0 140 69" fill="none" xmlns="http://www.w3.org/2000/svg">
<path d="M126.935 5.97329C128.247 7.88638 129.505 10.2464 128.886 12.7756C126.75 11.5821 125.032 9.63347 123.67 7.70979C122.298 5.77319 120.874 3.71387 120.386 1.3269C123.08 1.99964 125.492 3.8671 126.935 5.97329Z" fill="#AFAFAF"/>
<path d="M11.136 12.7715C10.5187 10.2419 11.7798 7.88279 13.0935 5.97079C14.5395 3.86584 16.9522 2.00009 19.6467 1.32922C19.1572 3.71572 17.7304 5.77426 16.3572 7.70962C14.9931 9.63237 13.2728 11.5797 11.136 12.7715Z" fill="#AFAFAF"/>
<path d="M9.25662 17.6239C9.73852 15.6206 9.72784 13.4276 9.26907 11.5486C8.86565 9.89726 8.27863 7.56293 6.34657 6.77527C4.94218 8.97443 4.37766 11.9692 5.19614 14.2132C5.78794 15.8363 6.85223 17.9824 9.05946 18.3145C11.0848 18.7704 13.1329 17.7156 14.7504 16.8448C16.5489 15.8767 18.3106 14.3364 19.381 12.5052C17.4175 11.5377 15.1814 12.3228 13.4991 13.0753C11.6857 13.8865 10.0199 15.6269 9.25662 17.6239Z" fill="#AFAFAF"/>
<path d="M48.5626 19.5484V9.49066H45.0453V13.155H39.7693V9.49066H36.252V19.5484H39.7693V15.8969H45.0453V19.5484H48.5626Z" fill="#AFAFAF"/>
<path d="M60.2244 9.49066H64.1092L58.5971 16.23V19.5484H55.0666V16.2428L49.6201 9.49066H53.6229L56.8778 13.5137L60.2244 9.49066Z" fill="#AFAFAF"/>
<path fill-rule="evenodd" clip-rule="evenodd" d="M76.3597 10.349C77.0554 10.8872 77.4491 11.797 77.4491 13.1166C77.4491 14.1928 77.1734 14.9999 76.6485 15.5638C75.9397 16.3582 74.7717 16.7168 73.2493 16.7297C72.7768 16.7425 68.7345 16.7297 68.7345 16.7297V19.5484H65.2041V9.49066H73.1968C74.6141 9.49066 75.6904 9.77252 76.3597 10.349ZM73.748 13.8982C73.8531 13.7188 73.9056 13.4881 73.9056 13.1678C73.9056 12.8347 73.8398 12.5529 73.7218 12.3991C73.4986 12.0788 73.0786 11.925 72.3962 11.925H68.7084V14.385H72.3699C73.105 14.385 73.538 14.2185 73.748 13.8982Z" fill="#AFAFAF"/>
<path d="M89.7069 17.0499V19.5484H78.8535V9.49066H89.6159V12.0019H82.3182V13.296H89.4054V15.7431H82.3182V17.0499H89.7069Z" fill="#AFAFAF"/>
<path fill-rule="evenodd" clip-rule="evenodd" d="M102.885 10.5156C103.359 10.9897 103.581 11.6431 103.581 12.5529C103.581 13.3344 103.384 14.0006 103.056 14.4491C102.689 14.9359 102.124 15.3459 101.429 15.4484L104.539 19.5484H100.628L98.0693 15.9994H94.8806V19.5484H91.376V9.49066H99.5783C101.205 9.49066 102.269 9.87499 102.885 10.5156ZM100.05 13.3984C100.143 13.2447 100.169 13.0397 100.169 12.8732C100.169 12.681 100.143 12.4759 100.05 12.3478C99.867 12.0147 99.5002 11.925 98.9482 11.925H94.8933V13.7572H99.0136C99.5783 13.7572 99.9197 13.6548 100.05 13.3984Z" fill="#AFAFAF"/>
<path d="M87.8286 32.1633C87.8286 29.8643 86.3325 28.656 82.8429 28.2868C82.2757 28.2197 80.6083 28.0518 79.5596 27.9679C76.8607 27.6826 76.0529 27.5317 76.0529 26.8604C76.0529 26.2563 76.6889 25.971 79.1126 25.971C80.8317 25.971 81.7944 26.2898 82.1725 26.7764C82.3617 27.0114 82.4304 27.1959 82.4476 27.3806H87.3984C87.3467 26.9778 87.1749 26.4072 86.8997 25.9039C86.006 24.2256 83.8571 22.8831 79.2331 22.8831C74.0244 22.8831 71.1709 24.6788 71.1709 27.0282C71.1709 29.2937 72.7867 30.6194 77.153 31.0055C77.6467 31.0467 78.707 31.1445 79.5751 31.2246L79.6287 31.2296L79.6384 31.2305L79.6422 31.2308L80.1098 31.2739C82.396 31.5089 83.0149 31.6598 83.0149 32.3648C83.0149 33.0192 82.4132 33.3716 79.8863 33.3716C77.9266 33.3716 76.7749 33.0863 76.3622 32.5996C76.1904 32.3983 76.07 32.0962 76.0357 31.8948H71.085C71.1365 32.2304 71.2225 32.7675 71.4115 33.2038C72.2539 35.0498 74.4543 36.4594 79.5596 36.4594C85.0433 36.4594 87.8286 34.9491 87.8286 32.1633Z" fill="#AFAFAF"/>
<path fill-rule="evenodd" clip-rule="evenodd" d="M52.73 34.9155C53.2457 34.3281 53.5035 33.4386 53.5035 32.5325C53.5035 31.7605 53.2972 31.0221 52.8675 30.5354C52.3518 29.8809 51.4406 29.4111 50.4781 29.2937C51.1313 29.2097 51.7501 28.8741 52.1111 28.4378C52.558 27.9175 52.7643 27.2127 52.7643 26.3568C52.7643 25.501 52.5065 24.7459 51.922 24.1753C51.2688 23.5208 50.0826 23.0844 48.2262 23.0844H36.5713V36.258H48.5527C50.4609 36.258 51.9393 35.8552 52.73 34.9155ZM47.9855 27.1456C47.9855 27.4645 47.8823 27.733 47.7105 27.9175C47.4698 28.1357 47.0228 28.2196 46.4383 28.2196H41.0751V26.0715H46.3181C46.9713 26.0715 47.4182 26.1555 47.6588 26.3737C47.8823 26.5582 47.9855 26.8267 47.9855 27.1456ZM48.5012 32.9185C48.2262 33.1702 47.7448 33.2709 46.9368 33.2709H41.0751V31.0725H46.9885C47.7448 31.0725 48.1917 31.1731 48.4495 31.3913C48.6559 31.5926 48.7418 31.8445 48.7418 32.18C48.7418 32.499 48.673 32.7506 48.5012 32.9185Z" fill="#AFAFAF"/>
<path d="M69.6917 32.9856V36.258H55.4756V23.0844H69.5714V26.3737H60.0137V28.0686H69.2964V31.2739H60.0137V32.9856H69.6917Z" fill="#AFAFAF"/>
<path d="M104.556 26.3905V23.0844H88.4492V26.3905H94.1392V36.258H98.8481V26.3905H104.556Z" fill="#AFAFAF"/>
<path d="M104.147 47.9151H103.389L103.335 47.2028C103.104 47.5633 102.614 47.9961 101.58 47.9961C99.8334 47.9961 99.0215 46.9683 99.0215 44.3442C99.0215 42.3154 99.5383 40.6833 101.671 40.6833C103.52 40.6833 104.083 41.8647 104.11 43.136H103.186C103.159 42.3065 102.78 41.54 101.69 41.54C100.379 41.54 99.9993 42.3065 99.9993 44.3714C99.9993 46.5265 100.471 47.2028 101.709 47.2028C102.577 47.2028 103.084 46.7339 103.252 46.1749V44.8313H101.386V44.0106H104.137V46.0847C104.137 46.7043 104.144 47.3657 104.145 47.6982L104.147 47.8564V47.9151Z" fill="#AFAFAF"/>
<path fill-rule="evenodd" clip-rule="evenodd" d="M36.7468 46.1206H39.3331L39.8687 47.9151H40.8478L38.7049 40.7736H37.5135L35.2227 47.9151H36.1925L36.7468 46.1206ZM39.1021 45.3182H36.9962C36.9962 45.3182 37.9105 42.4327 37.929 42.3697C37.9383 42.3245 38.0861 41.6843 38.0861 41.6843L38.1884 42.1579L38.2339 42.3697C38.2431 42.4147 39.1021 45.3182 39.1021 45.3182Z" fill="#AFAFAF"/>
<path d="M47.8585 40.7736H48.7453L47.0181 47.9151H45.9188C45.9188 47.9151 44.6904 42.3606 44.6904 42.1261C44.6811 42.3606 43.4249 47.9151 43.4249 47.9151H42.3259L40.5986 40.7736H41.5961C41.5961 40.7736 42.9354 46.4272 42.9354 46.6527C42.9354 46.4272 44.164 40.7736 44.164 40.7736H45.263C45.263 40.7736 46.4915 46.4363 46.4915 46.6527C46.4915 46.4363 47.8585 40.7736 47.8585 40.7736Z" fill="#AFAFAF"/>
<path fill-rule="evenodd" clip-rule="evenodd" d="M52.538 46.1206H49.9518L49.3976 47.9151H48.4277L50.7184 40.7736H51.91L54.0529 47.9151H53.0738L52.538 46.1206ZM50.2012 45.3182H52.3072C52.3072 45.3182 51.4482 42.4147 51.4389 42.3697L51.3691 42.0447L51.2911 41.6843C51.2911 41.6843 51.1433 42.3245 51.1341 42.3697C51.1156 42.4327 50.2012 45.3182 50.2012 45.3182Z" fill="#AFAFAF"/>
<path fill-rule="evenodd" clip-rule="evenodd" d="M57.6128 40.7736C58.7396 40.7736 59.3493 41.2875 59.3493 42.7844C59.3493 44.0559 58.8597 44.4796 58.3517 44.6238L59.7558 47.9151H58.7396L57.4373 44.8043H55.664V47.9151H54.7402V40.7736H57.6128ZM57.4744 43.9926C58.204 43.9926 58.3794 43.6229 58.3794 42.8115C58.3794 41.8917 58.1024 41.6122 57.4281 41.6122H55.6731V43.9926H57.4744Z" fill="#AFAFAF"/>
<path fill-rule="evenodd" clip-rule="evenodd" d="M65.4992 44.2272C65.4992 45.9134 65.37 46.5985 65.0006 47.1126C64.6311 47.6086 64.0492 47.9151 63.107 47.9151H60.5947V40.7736H63.0423C63.9661 40.7736 64.6865 41.0441 65.0191 41.5311C65.3885 42.054 65.4992 42.7032 65.4992 44.2272ZM62.9131 47.0674C63.4766 47.0674 63.9476 46.9232 64.1877 46.6076C64.4464 46.265 64.5203 45.5706 64.5203 44.2272C64.5203 43.1 64.4555 42.4958 64.1877 42.108C63.9384 41.7745 63.4581 41.6301 62.8946 41.6301H61.5276V47.0674H62.9131Z" fill="#AFAFAF"/>
<path d="M75.2453 40.7736H76.132L74.4048 47.9151H73.3056C73.3056 47.9151 72.0771 42.3606 72.0771 42.1261C72.0679 42.3606 70.8117 47.9151 70.8117 47.9151H69.7126L67.9854 40.7736H68.9828C68.9828 40.7736 70.3221 46.4272 70.3221 46.6527C70.3221 46.4272 71.5505 40.7736 71.5505 40.7736H72.6498C72.6498 40.7736 73.8782 46.4363 73.8782 46.6527C73.8782 46.4363 75.2453 40.7736 75.2453 40.7736Z" fill="#AFAFAF"/>
<path d="M77.7633 40.7736V47.9151H76.8027V40.7736H77.7633Z" fill="#AFAFAF"/>
<path d="M83.7778 40.7736V47.9151H82.7156L79.9907 42.3785V47.9151H79.0947V40.7736H80.2125L82.8725 46.2289V40.7736H83.7778Z" fill="#AFAFAF"/>
<path d="M89.7668 40.7736V47.9151H88.7044L85.98 42.3785V47.9151H85.084V40.7736H86.2017L88.8623 46.2289V40.7736H89.7668Z" fill="#AFAFAF"/>
<path d="M92.0326 40.7736V47.9151H91.0723V40.7736H92.0326Z" fill="#AFAFAF"/>
<path d="M98.0477 40.7736V47.9151H96.9853L94.2607 42.3785V47.9151H93.3643V40.7736H94.4825L97.1432 46.2289V40.7736H98.0477Z" fill="#AFAFAF"/>
<path d="M47.1456 61.9905L46.0872 58.8103L45.0287 61.9905H41.6035L44.3745 63.9561L43.3161 67.1363L46.0872 65.1708L48.8583 67.1363L47.7998 63.9561L50.5709 61.9905H47.1456Z" fill="#AFAFAF"/>
<path d="M59.3858 61.991L58.3057 58.8107L57.2256 61.991H53.7305L56.5582 63.9564L55.4781 67.1366L58.3057 65.1712L61.1335 67.1366L60.0534 63.9564L62.881 61.991H59.3858Z" fill="#AFAFAF"/>
<path d="M71.5098 61.991L70.4297 58.8107L69.3497 61.991H65.8545L68.6821 63.9564L67.602 67.1366L70.4297 65.1712L73.2573 67.1366L72.1772 63.9564L75.005 61.991H71.5098Z" fill="#AFAFAF"/>
<path d="M83.6319 61.991L82.5518 58.8107L81.4717 61.991H77.9766L80.8041 63.9564L79.7241 67.1366L82.5518 65.1712L85.3794 67.1366L84.2993 63.9564L87.1271 61.991H83.6319Z" fill="#AFAFAF"/>
<path d="M95.8287 61.991L94.7711 58.8107L93.7119 61.991H90.2871L93.0579 63.9564L92.0003 67.1366L94.7711 65.1712L97.5419 67.1366L96.4827 63.9564L99.2551 61.991H95.8287Z" fill="#AFAFAF"/>
<path d="M3.01812 23.0296C4.01414 24.5131 5.55539 26.3712 7.80266 26.3182C9.84622 26.4179 11.6118 25.0564 13.0021 23.9201C14.4995 22.6962 15.8511 20.9065 16.4217 18.9716C14.3315 18.3779 12.3304 19.4777 10.8381 20.515C9.27978 21.5983 8.08133 23.581 7.82387 25.6168C7.80457 23.5773 7.23909 21.4708 6.32745 19.7739C5.49398 18.2225 4.33254 16.1255 2.26042 15.7063C1.44401 18.1202 1.7045 21.0737 3.01812 23.0296Z" fill="#AFAFAF"/>
<path d="M8.46697 34.3079C6.38129 34.6491 4.34682 33.4016 3.02555 31.9342C1.32446 30.0449 0.312328 27.5105 0.518742 24.9733C2.66137 25.0264 4.28413 26.8345 5.48353 28.2018C6.7753 29.6743 7.83369 31.6117 8.34143 33.6103C8.11811 31.6186 8.80307 29.4678 10.0746 28.1389C11.3019 26.856 13.0212 25.4579 15.1603 25.6823C15.1142 27.7019 14.0772 29.626 13.0076 31.0671C12.0106 32.4101 10.4748 34.0712 8.46697 34.3079Z" fill="#AFAFAF"/>
<path d="M4.61497 41.0187C6.53587 42.2396 8.86561 43.448 11.314 42.5335C13.3227 41.8397 14.5997 39.8659 15.3852 38.0542C16.2172 36.1345 16.773 33.9211 16.3882 31.82C14.181 32.0112 12.3507 33.5529 11.3786 35.4349C10.3624 37.4023 10.1674 39.7441 10.9481 41.8069C9.79463 39.6848 8.10775 37.9678 6.32084 36.3812C4.69649 34.939 2.3567 33.4198 0 33.7055C0.448401 36.5499 2.22637 39.5007 4.61497 41.0187Z" fill="#AFAFAF"/>
<path d="M16.262 50.2229C18.1522 49.1198 18.913 46.7985 19.2239 44.8094C19.559 42.6643 19.5447 40.2985 18.6321 38.2635C16.439 38.8615 14.9337 40.7884 14.4366 42.899C13.9115 45.1288 14.3546 47.5053 15.632 49.4039C13.934 47.5021 11.676 45.9317 9.51218 44.8306C7.42204 43.767 4.85781 42.4841 2.34766 43.2589C3.55807 46.1427 6.14734 48.8278 9.01704 49.9384C11.2394 50.7983 13.9431 51.6487 16.262 50.2229Z" fill="#AFAFAF"/>
<path d="M25.2241 50.9695C25.5015 53.04 25.4937 55.6662 23.847 57.2599C21.7892 59.3161 18.6046 58.9193 16.1484 58.4669C12.8509 57.8591 9.1389 55.6635 7.14941 52.7401C9.57917 51.434 12.5508 52.2695 14.9563 52.9458L15.0937 52.9843C17.7788 53.7385 20.6402 54.9531 23.0333 56.6128C21.1235 54.9282 19.7321 52.4556 19.664 49.9633C19.6027 47.7343 20.5938 45.3495 22.7265 44.287C24.2154 46.1948 24.9127 48.6442 25.2241 50.9695Z" fill="#AFAFAF"/>
<path d="M34.7807 63.1226C35.9934 60.8691 34.7919 58.2243 33.8345 56.2695C32.7025 53.9585 31.156 51.6033 28.9427 49.9118C26.8175 51.6998 27.0196 54.2583 27.6515 56.4817C28.4028 59.1255 31.0075 61.3791 33.7048 62.6634C30.581 61.5261 27.1694 60.8436 23.9236 60.6421L23.5948 60.6214C20.9872 60.4555 17.5925 60.2397 15.5146 62.1026C18.6563 64.71 23.1188 66.2143 27.0518 66.1361C29.6875 66.0838 33.3038 65.7793 34.7807 63.1226Z" fill="#AFAFAF"/>
<path d="M130.761 17.631C130 15.6326 128.335 13.8901 126.523 13.0773C124.84 12.3236 122.605 11.537 120.642 12.5028C121.71 14.3348 123.47 15.8763 125.268 16.8459C126.883 17.7176 128.93 18.7738 130.956 18.3198C133.164 17.9897 134.231 15.8441 134.824 14.221C135.646 11.978 135.084 8.98267 133.682 6.7821C131.749 7.56868 131.159 9.90238 130.755 11.5535C130.294 13.433 130.281 15.6269 130.761 17.631Z" fill="#AFAFAF"/>
<path d="M129.175 20.5192C130.732 21.603 131.927 23.5846 132.184 25.619C132.206 23.5806 132.774 21.4761 133.686 19.7809C134.521 18.23 135.685 16.1339 137.757 15.7161C138.571 18.1308 138.308 21.0841 136.992 23.039C135.996 24.5198 134.455 26.374 132.212 26.3243C130.166 26.4263 128.398 25.0615 127.007 23.9229C125.511 22.6978 124.162 20.9071 123.594 18.9719C125.683 18.3795 127.684 19.4808 129.175 20.5192Z" fill="#AFAFAF"/>
<path d="M131.656 33.6235C131.885 31.63 131.202 29.4748 129.929 28.1432C128.704 26.8594 126.986 25.46 124.847 25.6829C124.89 27.7025 125.925 29.6275 126.994 31.0694C127.989 32.4125 129.522 34.0737 131.529 34.313C133.615 34.658 135.652 33.4111 136.976 31.9438C138.678 30.056 139.693 27.5223 139.49 24.9847C137.346 25.0364 135.723 26.8432 134.521 28.2095C133.226 29.683 132.165 31.6225 131.656 33.6235Z" fill="#AFAFAF"/>
<path d="M128.619 35.4387C129.634 37.4072 129.827 39.7495 129.044 41.8116C130.198 39.6898 131.888 37.9739 133.676 36.3884C135.301 34.9474 137.643 33.4301 139.999 33.7174C139.549 36.5616 137.767 39.5112 135.378 41.0274C133.457 42.2451 131.13 43.4511 128.685 42.5402C126.673 41.8477 125.395 39.8698 124.611 38.055C123.779 36.1348 123.226 33.921 123.614 31.8201C125.82 32.013 127.649 33.5561 128.619 35.4387Z" fill="#AFAFAF"/>
<path d="M124.356 49.4004C125.632 47.5036 126.077 45.1294 125.555 42.9007C125.061 40.7897 123.557 38.8616 121.363 38.2621C120.449 40.2962 120.433 42.6618 120.765 44.8074C121.074 46.7926 121.831 49.1092 123.71 50.2164C126.031 51.6534 128.741 50.8035 130.966 49.9439C133.837 48.8352 136.43 46.1521 137.642 43.2688C135.133 42.4925 132.568 43.7735 130.476 44.8356C128.313 45.9345 126.055 47.5016 124.356 49.4004Z" fill="#AFAFAF"/>
<path d="M114.759 50.9634C114.48 53.0335 114.485 55.6595 116.131 57.2546C118.186 59.3123 121.371 58.9177 123.828 58.4669C127.127 57.8616 130.84 55.6684 132.832 52.7466C130.405 51.439 127.431 52.272 125.026 52.9464L124.887 52.9851C122.202 53.7369 119.341 54.9491 116.946 56.6063C118.857 54.9231 120.25 52.4525 120.32 49.9612C120.384 47.7323 119.395 45.3467 117.264 44.2825C115.772 46.1892 115.073 48.6383 114.759 50.9634Z" fill="#AFAFAF"/>
<path d="M112.916 66.1285C110.281 66.0741 106.665 65.7672 105.191 63.1092L105.17 63.0728C103.993 60.8261 105.189 58.2003 106.143 56.257C107.277 53.9468 108.826 51.5927 111.04 49.9031C113.165 51.6925 112.959 54.2508 112.326 56.4736C111.571 59.1169 108.965 61.369 106.266 62.6511C109.391 61.5162 112.803 60.8361 116.049 60.6368L116.379 60.6162C118.987 60.4524 122.382 60.2394 124.457 62.1034C121.313 64.7081 116.85 66.2094 112.916 66.1285Z" fill="#AFAFAF"/>
</svg>
