<svg width="152" height="10" viewBox="0 0 152 10" fill="none" xmlns="http://www.w3.org/2000/svg">
<path d="M6.60001 0.109985V1.73999H2.12V3.79999H6.13V5.42999H2.12V7.69999H6.60001V9.21999H0V0.119987H6.60001V0.109985Z" fill="#FF375B"/>
<path d="M20.7695 6.42L22.5995 7.3C21.6495 8.65 20.2295 9.33 18.3495 9.33C17.0095 9.33 15.8695 8.92 14.9295 8.11C13.9895 7.3 13.5195 6.15 13.5195 4.68C13.5195 3.21 13.9695 2.06 14.8695 1.25C15.7695 0.43 16.9295 0.0299988 18.3495 0.0299988C20.2395 0.0299988 21.6495 0.669999 22.5795 1.96L20.7295 2.87C20.1595 2.06 19.3695 1.66 18.3495 1.66C17.5295 1.66 16.8795 1.93 16.3795 2.47C15.8795 3.01 15.6395 3.75 15.6395 4.7C15.6395 5.65 15.8895 6.39 16.3795 6.93C16.8695 7.47 17.5295 7.74 18.3495 7.74C19.3595 7.7 20.1695 7.27 20.7695 6.42Z" fill="#FF375B"/>
<path d="M37.3906 1.28C38.3306 2.13 38.8006 3.26 38.8006 4.66C38.8006 6.13 38.3306 7.28 37.3906 8.09C36.4506 8.91 35.3106 9.31 33.9706 9.31C32.6306 9.31 31.4906 8.9 30.5506 8.09C29.6106 7.28 29.1406 6.13 29.1406 4.66C29.1406 3.26 29.6106 2.13 30.5506 1.28C31.4906 0.429999 32.6306 0 33.9706 0C35.3106 0 36.4606 0.429999 37.3906 1.28ZM33.9706 1.63C33.2306 1.63 32.5906 1.9 32.0606 2.44C31.5306 2.98 31.2606 3.72 31.2606 4.67C31.2606 5.62 31.5306 6.36 32.0606 6.9C32.5906 7.44 33.2306 7.71 33.9706 7.71C34.7106 7.71 35.3506 7.44 35.8806 6.9C36.4106 6.36 36.6806 5.62 36.6806 4.67C36.6806 3.72 36.4106 2.98 35.8806 2.44C35.3506 1.9 34.7106 1.63 33.9706 1.63Z" fill="#FF375B"/>
<path d="M63.3591 5.60999C64.1591 5.92999 64.5891 6.63999 64.6391 7.72999C64.6991 8.23999 64.8291 8.73999 65.0391 9.24999H63.1191C62.8591 9.06999 62.6991 8.67999 62.6391 8.08999C62.6391 7.51999 62.5291 7.05999 62.3191 6.70999C62.0991 6.35999 61.7091 6.17999 61.1191 6.17999H58.9892V9.20999H56.8691V0.109985H61.3492C62.4392 0.109985 63.2991 0.419986 63.9391 1.03999C64.5691 1.65999 64.8891 2.37999 64.8891 3.19999C64.8791 4.16999 64.3691 4.96999 63.3591 5.60999ZM58.9892 1.73999V4.55999H61.2291C61.6491 4.55999 62.0191 4.41999 62.3091 4.14999C62.6091 3.87999 62.7591 3.53999 62.7591 3.14999C62.7591 2.75999 62.6091 2.42999 62.3091 2.14999C62.0091 1.87999 61.6491 1.73999 61.2291 1.73999H58.9892Z" fill="#FF375B"/>
<path d="M78.8598 0.109985V1.73999H74.3798V3.79999H78.3898V5.42999H74.3798V7.69999H78.8598V9.21999H72.2598V0.119987H78.8598V0.109985Z" fill="#FF375B"/>
<path d="M86.25 9.20999V0.109985H88.44L92.85 6.09999V0.109985H94.97V9.20999H92.8L88.37 3.18999V9.20999H86.25Z" fill="#FF375B"/>
<path d="M109.43 0.109985V1.73999H106.35V9.21999H104.23V1.73999H101.17V0.109985H109.43Z" fill="#FF375B"/>
<path d="M116.84 7.25999L115.93 9.20999H113.74L118.03 0.109985H120.02L124.33 9.20999H122.13L121.22 7.25999H116.84ZM120.51 5.74999L119.03 2.35999L117.54 5.74999H120.51Z" fill="#FF375B"/>
<path d="M131.02 9.20999V0.109985H133.14V7.58999H137.38V9.21999H131.02V9.20999Z" fill="#FF375B"/>
<path d="M144.45 4.48001C143.8 4.01001 143.47 3.40001 143.47 2.66001C143.47 1.92001 143.79 1.29001 144.44 0.78001C145.09 0.27001 145.94 0.0100098 147 0.0100098C148.67 0.0100098 149.91 0.580009 150.72 1.72001L148.79 2.42001C148.33 1.89001 147.73 1.63001 147 1.63001C146.57 1.63001 146.22 1.73001 145.97 1.94001C145.71 2.15001 145.59 2.39001 145.59 2.66001C145.59 2.99001 145.72 3.23001 146 3.37001C146.27 3.51001 146.73 3.64001 147.38 3.76001C148.4 3.88001 149.26 4.18001 149.96 4.66001C150.66 5.14001 151.01 5.79001 151.01 6.60001C151.01 7.42001 150.66 8.10001 149.96 8.63001C149.26 9.16001 148.35 9.42001 147.24 9.42001C146.28 9.42001 145.45 9.21001 144.74 8.79001C144.03 8.37001 143.53 7.87001 143.23 7.30001L145.08 6.64001C145.66 7.34001 146.38 7.69001 147.24 7.69001C147.75 7.69001 148.15 7.59001 148.45 7.40001C148.74 7.21001 148.89 6.97001 148.89 6.69001C148.89 6.37001 148.74 6.11001 148.43 5.92001C148.12 5.72001 147.54 5.54001 146.67 5.38001C145.84 5.25001 145.1 4.95001 144.45 4.48001Z" fill="#FF375B"/>
</svg>
