<svg width="243" height="19" viewBox="0 0 243 19" fill="none" xmlns="http://www.w3.org/2000/svg">
<path d="M5.16 11.45C5.16 14.45 5.16 16.07 5.65 16.49C6.05 16.84 6.66001 17.01 8.49001 17.01C9.73001 17.01 10.65 16.99 11.24 16.35C11.52 16.04 11.8 15.39 11.85 14.94C11.87 14.73 11.92 14.59 12.11 14.59C12.27 14.59 12.3 14.71 12.3 14.99C12.3 15.25 12.14 17.01 11.95 17.69C11.81 18.21 11.69 18.32 10.47 18.32C8.78 18.32 7.56 18.27 6.5 18.25C5.44 18.2 4.60001 18.18 3.64001 18.18C3.38001 18.18 2.87 18.18 2.3 18.2C1.76 18.2 1.15 18.25 0.68 18.25C0.37 18.25 0.210007 18.18 0.210007 18.02C0.210007 17.9 0.300004 17.83 0.590004 17.83C0.940004 17.83 1.22 17.78 1.43 17.74C1.9 17.65 2.02 17.13 2.11 16.45C2.23 15.46 2.23 13.61 2.23 11.45V7.31999C2.23 3.74999 2.23 3.09999 2.18 2.34999C2.13 1.54999 1.95001 1.17999 1.17001 1.00999C0.980006 0.959989 0.700002 0.939989 0.400002 0.939989C0.140002 0.939989 0 0.889988 0 0.729988C0 0.569988 0.160004 0.519989 0.520004 0.519989C1.62 0.519989 3.1 0.589989 3.73 0.589989C4.29 0.589989 6.01001 0.519989 6.92001 0.519989C7.25001 0.519989 7.41 0.569988 7.41 0.729988C7.41 0.889988 7.27001 0.939989 6.99001 0.939989C6.73001 0.939989 6.36 0.959989 6.08 1.00999C5.45 1.12999 5.26001 1.52999 5.21001 2.34999C5.16001 3.09999 5.16 3.75999 5.16 7.31999V11.45Z" fill="white"/>
<path d="M17.8293 12.13C17.7093 12.13 17.6693 12.18 17.6193 12.32L16.3493 15.68C16.1193 16.27 15.9993 16.83 15.9993 17.11C15.9993 17.53 16.2093 17.84 16.9393 17.84H17.2893C17.5693 17.84 17.6393 17.89 17.6393 18.03C17.6393 18.22 17.4993 18.26 17.2393 18.26C16.4893 18.26 15.4793 18.19 14.7493 18.19C14.4893 18.19 13.1993 18.26 11.9793 18.26C11.6693 18.26 11.5293 18.21 11.5293 18.03C11.5293 17.89 11.6193 17.84 11.8093 17.84C12.0193 17.84 12.3493 17.82 12.5393 17.79C13.6193 17.65 14.0693 16.85 14.5293 15.68L20.4193 0.940001C20.6993 0.260001 20.8393 0 21.0793 0C21.2893 0 21.4293 0.21 21.6693 0.75C22.2293 2.04 25.9893 11.61 27.4893 15.18C28.3793 17.29 29.0593 17.62 29.5593 17.74C29.9093 17.81 30.2593 17.83 30.5493 17.83C30.7393 17.83 30.8493 17.85 30.8493 18.02C30.8493 18.21 30.6393 18.25 29.7693 18.25C28.9193 18.25 27.2093 18.25 25.3393 18.2C24.9193 18.18 24.6393 18.18 24.6393 18.01C24.6393 17.87 24.7293 17.82 24.9693 17.8C25.1293 17.75 25.2993 17.54 25.1793 17.26L23.2993 12.29C23.2493 12.17 23.1793 12.13 23.0693 12.13H17.8293ZM22.6093 10.96C22.7293 10.96 22.7493 10.89 22.7293 10.82L20.6193 5.02C20.5993 4.93 20.5693 4.81 20.4993 4.81C20.4293 4.81 20.3793 4.93 20.3593 5.02L18.1993 10.79C18.1793 10.88 18.1993 10.95 18.2893 10.95H22.6093V10.96Z" fill="white"/>
<path d="M34.6303 15.06C34.6803 16.89 34.9803 17.5 35.4503 17.66C35.8503 17.8 36.2903 17.82 36.6703 17.82C36.9303 17.82 37.0703 17.87 37.0703 18.01C37.0703 18.2 36.8603 18.24 36.5303 18.24C35.0003 18.24 34.0703 18.17 33.6203 18.17C33.4103 18.17 32.3103 18.24 31.0903 18.24C30.7803 18.24 30.5703 18.22 30.5703 18.01C30.5703 17.87 30.7103 17.82 30.9503 17.82C31.2603 17.82 31.6803 17.8 32.0103 17.7C32.6203 17.51 32.7103 16.83 32.7403 14.79L32.9503 0.900005C32.9503 0.430005 33.0203 0.100006 33.2603 0.100006C33.5203 0.100006 33.7303 0.410006 34.1303 0.830006C34.4103 1.14001 37.9803 4.96001 41.4003 8.36001C43.0003 9.96001 46.1603 13.33 46.5603 13.71H46.6803L46.4503 3.17001C46.4303 1.74001 46.2203 1.29001 45.6503 1.06001C45.3003 0.920005 44.7403 0.920006 44.4103 0.920006C44.1303 0.920006 44.0303 0.850007 44.0303 0.710007C44.0303 0.520007 44.2903 0.500006 44.6403 0.500006C45.8603 0.500006 46.9903 0.570005 47.4803 0.570005C47.7403 0.570005 48.6303 0.500006 49.7803 0.500006C50.0903 0.500006 50.3203 0.520007 50.3203 0.710007C50.3203 0.850007 50.1803 0.920006 49.9003 0.920006C49.6703 0.920006 49.4803 0.920006 49.2003 0.990005C48.5403 1.18001 48.3503 1.67001 48.3303 2.98001L48.0703 17.79C48.0703 18.31 47.9803 18.52 47.7703 18.52C47.5103 18.52 47.2303 18.26 46.9703 18C45.4903 16.59 42.4903 13.52 40.0503 11.1C37.4903 8.57001 34.8903 5.63001 34.4703 5.19001H34.4003L34.6303 15.06Z" fill="white"/>
<path d="M55.5302 7.31999C55.5302 3.74999 55.5302 3.09999 55.4802 2.34999C55.4302 1.54999 55.2502 1.17999 54.4702 1.00999C54.2802 0.959989 53.8802 0.939989 53.5602 0.939989C53.3002 0.939989 53.1602 0.889988 53.1602 0.729988C53.1602 0.569988 53.3202 0.519989 53.6802 0.519989C54.9202 0.519989 56.4002 0.589989 57.0602 0.589989C57.7902 0.589989 59.2702 0.519989 60.6702 0.519989C63.6002 0.519989 67.5202 0.519989 70.0802 3.18999C71.2502 4.40999 72.3602 6.35999 72.3602 9.14999C72.3602 12.11 71.1202 14.36 69.8002 15.7C68.7202 16.8 66.2802 18.47 61.9402 18.47C61.1002 18.47 60.1302 18.4 59.2402 18.33C58.3502 18.26 57.5302 18.19 56.9402 18.19C56.6802 18.19 56.1702 18.19 55.6002 18.21C55.0602 18.21 54.4502 18.26 53.9802 18.26C53.6702 18.26 53.5102 18.19 53.5102 18.03C53.5102 17.91 53.6002 17.84 53.8902 17.84C54.2402 17.84 54.5202 17.79 54.7302 17.75C55.2002 17.66 55.3202 17.14 55.4102 16.46C55.5302 15.47 55.5302 13.62 55.5302 11.46V7.31999ZM58.4602 9.89999C58.4602 12.39 58.4802 14.19 58.5102 14.64C58.5302 15.23 58.5802 16.16 58.7702 16.42C59.0802 16.87 59.9902 17.36 61.8402 17.36C64.2302 17.36 65.8302 16.89 67.2402 15.67C68.7402 14.38 69.2102 12.24 69.2102 9.82999C69.2102 6.84999 67.9702 4.92999 66.9602 3.95999C64.8002 1.88999 62.1302 1.60999 60.3002 1.60999C59.8302 1.60999 58.9602 1.67999 58.7702 1.76999C58.5602 1.85999 58.4902 1.97999 58.4902 2.23999C58.4702 3.03999 58.4702 5.07999 58.4702 6.92999V9.89999H58.4602Z" fill="white"/>
<path d="M81.9707 9.37999C81.9707 5.36999 84.6207 0.179993 91.6607 0.179993C97.5007 0.179993 101.141 3.57999 101.141 8.95999C101.141 14.34 97.3907 18.58 91.4307 18.58C84.6907 18.58 81.9707 13.54 81.9707 9.37999ZM97.8607 9.82999C97.8607 4.56999 94.8307 1.30999 90.9807 1.30999C88.2807 1.30999 85.2107 2.80999 85.2107 8.64999C85.2107 13.53 87.9107 17.4 92.4107 17.4C94.0607 17.41 97.8607 16.61 97.8607 9.82999Z" fill="white"/>
<path d="M109 11.45C109 13.7 109 15.46 109.12 16.45C109.19 17.13 109.33 17.65 110.04 17.74C110.37 17.79 110.88 17.83 111.21 17.83C111.52 17.83 111.61 17.9 111.61 18.02C111.61 18.18 111.45 18.25 111.09 18.25C109.61 18.25 108.13 18.18 107.52 18.18C106.91 18.18 105.43 18.25 104.54 18.25C104.21 18.25 104.05 18.2 104.05 18.02C104.05 17.9 104.14 17.83 104.4 17.83C104.75 17.83 105.03 17.78 105.24 17.74C105.71 17.65 105.83 17.13 105.92 16.45C106.04 15.46 106.04 13.7 106.04 11.45V7.32C106.04 3.75 106.04 3.1 105.99 2.35C105.94 1.55 105.76 1.18 104.98 1.01C104.79 0.959996 104.39 0.939997 104.07 0.939997C103.84 0.939997 103.67 0.889996 103.67 0.749996C103.67 0.559996 103.86 0.519997 104.21 0.519997C104.82 0.519997 105.5 0.539997 106.11 0.539997C106.72 0.559997 107.26 0.589996 107.59 0.589996C108.48 0.589996 113.25 0.589996 113.79 0.569996C114.24 0.549996 114.52 0.549996 114.75 0.479996C114.89 0.429996 115.01 0.339996 115.13 0.339996C115.22 0.339996 115.29 0.429995 115.29 0.549995C115.29 0.709995 115.17 0.999997 115.1 1.61C115.08 1.84 115.03 3.23 114.98 3.51C114.96 3.7 114.91 3.84 114.75 3.84C114.59 3.84 114.54 3.72 114.52 3.46C114.52 3.27 114.52 2.9 114.38 2.57C114.22 2.24 113.72 1.89 112.83 1.87L109.22 1.8C109.08 1.8 109.01 1.87 109.01 2.13V8C109.01 8.14 109.03 8.21 109.17 8.21L112.17 8.19C112.57 8.19 112.9 8.19 113.23 8.17C113.68 8.15 114 8.05 114.24 7.75C114.36 7.61 114.4 7.51 114.55 7.51C114.64 7.51 114.69 7.58 114.69 7.72C114.69 7.86 114.57 8.45 114.5 9.17C114.45 9.64 114.41 10.72 114.41 10.88C114.41 11.09 114.41 11.33 114.18 11.33C114.04 11.33 113.99 11.17 113.99 11C113.99 10.84 113.94 10.55 113.85 10.27C113.73 9.94 113.38 9.52 112.65 9.43C112.06 9.36 109.58 9.36 109.18 9.36C109.06 9.36 109.02 9.41 109.02 9.57V11.45H109Z" fill="white"/>
<path d="M128.99 15.06C129.04 16.89 129.34 17.5 129.81 17.66C130.21 17.8 130.65 17.82 131.03 17.82C131.29 17.82 131.43 17.87 131.43 18.01C131.43 18.2 131.22 18.24 130.89 18.24C129.36 18.24 128.43 18.17 127.98 18.17C127.77 18.17 126.67 18.24 125.45 18.24C125.15 18.24 124.93 18.22 124.93 18.01C124.93 17.87 125.07 17.82 125.31 17.82C125.62 17.82 126.04 17.8 126.37 17.7C126.98 17.51 127.07 16.83 127.1 14.79L127.31 0.900005C127.31 0.430005 127.38 0.100006 127.62 0.100006C127.88 0.100006 128.09 0.410006 128.49 0.830006C128.77 1.14001 132.34 4.96001 135.76 8.36001C137.36 9.96001 140.52 13.33 140.92 13.71H141.04L140.81 3.17001C140.79 1.74001 140.58 1.29001 140.01 1.06001C139.66 0.920005 139.1 0.920006 138.77 0.920006C138.49 0.920006 138.39 0.850007 138.39 0.710007C138.39 0.520007 138.65 0.500006 139 0.500006C140.22 0.500006 141.35 0.570005 141.84 0.570005C142.1 0.570005 142.99 0.500006 144.14 0.500006C144.45 0.500006 144.68 0.520007 144.68 0.710007C144.68 0.850007 144.54 0.920006 144.26 0.920006C144.03 0.920006 143.84 0.920006 143.56 0.990005C142.9 1.18001 142.72 1.67001 142.69 2.98001L142.43 17.79C142.43 18.31 142.34 18.52 142.12 18.52C141.86 18.52 141.58 18.26 141.32 18C139.84 16.59 136.84 13.52 134.4 11.1C131.84 8.57001 129.24 5.63001 128.82 5.19001H128.73L128.99 15.06Z" fill="white"/>
<path d="M147.1 9.37999C147.1 5.36999 149.75 0.179993 156.79 0.179993C162.63 0.179993 166.27 3.57999 166.27 8.95999C166.27 14.34 162.52 18.58 156.56 18.58C149.82 18.58 147.1 13.54 147.1 9.37999ZM162.99 9.82999C162.99 4.56999 159.96 1.30999 156.11 1.30999C153.41 1.30999 150.34 2.80999 150.34 8.64999C150.34 13.53 153.04 17.4 157.54 17.4C159.18 17.41 162.99 16.61 162.99 9.82999Z" fill="white"/>
<path d="M172.161 0.610001C172.231 0.210001 172.371 0 172.561 0C172.751 0 172.891 0.12 173.191 0.73L179.601 13.96L185.981 0.559999C186.171 0.179999 186.291 0 186.501 0C186.711 0 186.851 0.23 186.921 0.73L189.061 15.23C189.271 16.71 189.511 17.39 190.211 17.6C190.891 17.81 191.361 17.84 191.661 17.84C191.871 17.84 192.031 17.86 192.031 18C192.031 18.19 191.751 18.26 191.421 18.26C190.831 18.26 187.601 18.19 186.661 18.12C186.121 18.07 185.981 18 185.981 17.86C185.981 17.74 186.071 17.67 186.241 17.6C186.381 17.55 186.451 17.25 186.361 16.59L184.951 6.27H184.861L179.741 16.92C179.201 18.02 179.081 18.23 178.871 18.23C178.661 18.23 178.421 17.76 178.051 17.06C177.491 15.98 175.631 12.39 175.351 11.73C175.141 11.24 173.731 8.28 172.911 6.52H172.821L171.601 15.86C171.551 16.28 171.531 16.59 171.531 16.96C171.531 17.41 171.841 17.62 172.231 17.71C172.651 17.8 172.981 17.83 173.221 17.83C173.411 17.83 173.571 17.88 173.571 17.99C173.571 18.2 173.361 18.25 173.011 18.25C172.021 18.25 170.971 18.18 170.551 18.18C170.101 18.18 168.981 18.25 168.231 18.25C168.001 18.25 167.811 18.2 167.811 17.99C167.811 17.87 167.951 17.83 168.191 17.83C168.381 17.83 168.541 17.83 168.891 17.76C169.551 17.62 169.731 16.7 169.851 15.91L172.161 0.610001Z" fill="white"/>
<path d="M196.931 12.13C196.811 12.13 196.771 12.18 196.721 12.32L195.451 15.68C195.221 16.27 195.101 16.83 195.101 17.11C195.101 17.53 195.311 17.84 196.041 17.84H196.391C196.671 17.84 196.741 17.89 196.741 18.03C196.741 18.22 196.601 18.26 196.341 18.26C195.591 18.26 194.581 18.19 193.851 18.19C193.591 18.19 192.301 18.26 191.081 18.26C190.771 18.26 190.631 18.21 190.631 18.03C190.631 17.89 190.721 17.84 190.911 17.84C191.121 17.84 191.451 17.82 191.641 17.79C192.721 17.65 193.171 16.85 193.631 15.68L199.521 0.940001C199.801 0.260001 199.941 0 200.181 0C200.391 0 200.531 0.21 200.771 0.75C201.331 2.04 205.091 11.61 206.591 15.18C207.481 17.29 208.161 17.62 208.661 17.74C209.011 17.81 209.361 17.83 209.651 17.83C209.841 17.83 209.951 17.85 209.951 18.02C209.951 18.21 209.741 18.25 208.871 18.25C208.021 18.25 206.311 18.25 204.441 18.2C204.021 18.18 203.741 18.18 203.741 18.01C203.741 17.87 203.831 17.82 204.071 17.8C204.231 17.75 204.401 17.54 204.281 17.26L202.401 12.29C202.351 12.17 202.281 12.13 202.171 12.13H196.931ZM201.721 10.96C201.841 10.96 201.861 10.89 201.841 10.82L199.731 5.02C199.711 4.93 199.681 4.81 199.611 4.81C199.541 4.81 199.491 4.93 199.471 5.02L197.311 10.79C197.291 10.88 197.311 10.95 197.401 10.95H201.721V10.96Z" fill="white"/>
<path d="M212.421 7.31999C212.421 3.74999 212.421 3.09999 212.371 2.34999C212.321 1.54999 212.141 1.17999 211.361 1.00999C211.171 0.959989 210.771 0.939989 210.451 0.939989C210.191 0.939989 210.051 0.889988 210.051 0.729988C210.051 0.569988 210.211 0.519989 210.571 0.519989C211.811 0.519989 213.291 0.589989 213.951 0.589989C214.681 0.589989 216.161 0.519989 217.561 0.519989C220.491 0.519989 224.411 0.519989 226.971 3.18999C228.141 4.40999 229.251 6.35999 229.251 9.14999C229.251 12.11 228.011 14.36 226.691 15.7C225.611 16.8 223.171 18.47 218.831 18.47C217.991 18.47 217.021 18.4 216.131 18.33C215.241 18.26 214.421 18.19 213.831 18.19C213.571 18.19 213.061 18.19 212.491 18.21C211.951 18.21 211.341 18.26 210.871 18.26C210.561 18.26 210.401 18.19 210.401 18.03C210.401 17.91 210.491 17.84 210.781 17.84C211.131 17.84 211.411 17.79 211.621 17.75C212.091 17.66 212.211 17.14 212.301 16.46C212.421 15.47 212.421 13.62 212.421 11.46V7.31999ZM215.351 9.89999C215.351 12.39 215.371 14.19 215.401 14.64C215.421 15.23 215.471 16.16 215.661 16.42C215.971 16.87 216.881 17.36 218.731 17.36C221.121 17.36 222.721 16.89 224.131 15.67C225.631 14.38 226.101 12.24 226.101 9.82999C226.101 6.84999 224.861 4.92999 223.851 3.95999C221.691 1.88999 219.021 1.60999 217.191 1.60999C216.721 1.60999 215.851 1.67999 215.661 1.76999C215.451 1.85999 215.381 1.97999 215.381 2.23999C215.361 3.03999 215.361 5.07999 215.361 6.92999V9.89999H215.351Z" fill="white"/>
<path d="M233.091 17.97C232.711 17.81 232.641 17.69 232.641 17.17C232.641 15.88 232.731 14.47 232.761 14.1C232.781 13.75 232.851 13.49 233.041 13.49C233.251 13.49 233.271 13.7 233.271 13.89C233.271 14.19 233.361 14.69 233.481 15.09C234.001 16.83 235.381 17.46 236.841 17.46C238.951 17.46 239.981 16.03 239.981 14.79C239.981 13.64 239.631 12.56 237.681 11.04L236.601 10.2C234.021 8.18001 233.131 6.54001 233.131 4.64001C233.131 2.06001 235.291 0.200012 238.551 0.200012C240.081 0.200012 241.061 0.440012 241.671 0.600012C241.881 0.650012 242.001 0.720011 242.001 0.880011C242.001 1.19001 241.911 1.87001 241.911 3.70001C241.911 4.22001 241.841 4.40001 241.651 4.40001C241.491 4.40001 241.421 4.26001 241.421 3.98001C241.421 3.77001 241.301 3.04001 240.811 2.43001C240.461 1.98001 239.781 1.28001 238.251 1.28001C236.511 1.28001 235.461 2.29001 235.461 3.70001C235.461 4.78001 236.001 5.60001 237.951 7.08001L238.611 7.57001C241.451 9.70001 242.461 11.32 242.461 13.55C242.461 14.91 241.941 16.53 240.251 17.63C239.081 18.38 237.761 18.59 236.521 18.59C235.151 18.58 234.101 18.42 233.091 17.97Z" fill="white"/>
</svg>
