<svg width="86" height="77" viewBox="0 0 86 77" fill="none" xmlns="http://www.w3.org/2000/svg">
<path d="M32.1 1.45999C37.95 -0.22001 44.21 -0.45001 50.18 0.74999C57.91 2.29999 65.12 6.31999 70.48 12.1C70.38 12.52 70.14 12.89 69.99 13.3C64.76 7.52999 57.66 3.45999 50.02 1.92999C44.1 0.71999 37.88 0.97999 32.09 2.69999C25.66 4.58999 19.78 8.28999 15.27 13.25C15.11 12.85 14.94 12.46 14.75 12.07C19.44 7.05999 25.49 3.33999 32.1 1.45999Z" fill="#EE3D5E"/>
<path d="M5.19922 10.54C6.63922 10.17 8.19922 10.03 9.62922 10.54C11.7992 11.25 13.5792 12.97 14.4092 15.09C15.0592 16.55 15.1392 18.21 14.7392 19.74C14.0392 19.3 13.4692 18.7 12.8192 18.21C12.0992 17.62 11.2692 17.21 10.4492 16.78C11.2892 16.75 12.1292 16.62 12.9692 16.58C11.4592 15.8 9.77922 15.39 8.28922 14.56C9.17922 14.49 10.0792 14.38 10.9692 14.34C10.7192 14.05 10.2992 14.08 9.96922 13.94C9.05922 13.61 8.11922 13.34 7.20922 13C7.89922 12.86 8.58922 12.69 9.27922 12.56C8.26922 11.99 7.20922 11.52 6.14922 11.04C5.82922 10.89 5.44922 10.82 5.19922 10.54Z" fill="#EE3D5E"/>
<path d="M72.4196 12.55C73.6196 11.3 75.2396 10.41 76.9796 10.23C77.8596 10.13 78.7496 10.25 79.6096 10.44C79.7596 10.46 79.8896 10.55 79.9996 10.64C78.5996 11.2 77.2696 11.9 75.9196 12.56C76.6096 12.7 77.2996 12.86 77.9896 13C77.0396 13.34 76.0796 13.63 75.1296 13.96C74.8296 14.08 74.4596 14.08 74.2296 14.33C75.1296 14.37 76.0196 14.48 76.9096 14.55C75.4296 15.38 73.7596 15.81 72.2496 16.58C73.0896 16.61 73.9196 16.75 74.7596 16.78C74.2996 17.04 73.7996 17.24 73.3596 17.53C72.3396 18.19 71.4596 19.05 70.4596 19.74C70.2796 18.89 70.1096 18.02 70.2296 17.15C70.4496 15.43 71.2596 13.81 72.4196 12.55Z" fill="#EE3D5E"/>
<path d="M17.5994 14.13C18.6494 13.08 20.0394 12.27 21.5594 12.22C22.6794 12.18 23.8894 12.32 24.8194 12.98C24.1594 13.1 23.5094 13.28 22.8494 13.45C22.3494 13.59 21.7894 13.6 21.3594 13.92C21.8294 14.13 22.3094 14.33 22.7694 14.55C21.7694 14.7 20.7594 14.8 19.7594 14.92C20.3994 15.19 21.0894 15.31 21.7294 15.58C20.5094 15.95 19.2394 16.17 17.9694 16.35C18.5594 16.55 19.1494 16.76 19.7294 16.97C19.0294 17.21 18.3194 17.41 17.6594 17.75C17.0894 18.04 16.5494 18.37 15.9794 18.68C15.8294 16.99 16.4394 15.31 17.5994 14.13Z" fill="#EE3D5E"/>
<path d="M60.3906 12.98C61.5506 12.16 63.0506 12.11 64.4106 12.28C66.0306 12.62 67.4006 13.73 68.3206 15.07C69.0506 16.1 69.3606 17.4 69.2306 18.65C68.5306 18.29 67.8706 17.85 67.1506 17.53C66.6106 17.29 66.0306 17.13 65.4706 16.94C66.0606 16.73 66.6506 16.52 67.2506 16.32C65.9806 16.15 64.7206 15.89 63.4806 15.57C64.1206 15.27 64.8306 15.16 65.4906 14.91C64.4606 14.77 63.4306 14.69 62.4106 14.52C62.8606 14.24 63.3706 14.1 63.8606 13.91C63.7306 13.8 63.5806 13.69 63.4106 13.68C62.3806 13.49 61.4006 13.16 60.3906 12.98Z" fill="#EE3D5E"/>
<path d="M3.56 17.46C5.47 16.68 7.69 16.68 9.57 17.54C11.14 18.2 12.47 19.43 13.24 20.96C12.15 20.99 11.05 20.91 9.98 21.15C9.35 21.29 8.73 21.45 8.11 21.6C8.65 20.94 9.26 20.35 9.83 19.72C8.2 20.29 6.6 20.95 4.96 21.5C5.52 20.8 6.14 20.15 6.7 19.44C5.48 19.84 4.4 20.58 3.19 20.98C3.52 20.36 4.01 19.84 4.39 19.25C2.91 19.63 1.49 20.24 0 20.61C0.76 19.18 2.06 18.07 3.56 17.46Z" fill="#EE3D5E"/>
<path d="M73.9405 18.58C75.2205 17.52 76.8705 16.95 78.5305 16.91C81.2105 16.78 83.9605 18.21 85.2105 20.63C83.7205 20.25 82.3105 19.65 80.8205 19.26C81.2205 19.83 81.6905 20.36 82.0105 20.98C80.8005 20.57 79.7205 19.84 78.5005 19.44C79.0505 20.15 79.7305 20.75 80.2305 21.5C78.6105 20.93 77.0005 20.31 75.3905 19.72C75.9605 20.35 76.5305 20.98 77.1105 21.6C76.4805 21.46 75.8605 21.29 75.2305 21.15C74.1605 20.91 73.0605 20.99 71.9805 20.97C72.3605 19.98 73.1505 19.24 73.9405 18.58Z" fill="#EE3D5E"/>
<path d="M59.6194 19.15C61.3794 18.01 63.5894 17.56 65.6494 17.98C66.5094 18.15 67.2994 18.55 68.0594 18.98C68.5494 19.26 68.9294 19.67 69.3694 20.02C68.2594 20.38 67.1594 20.76 66.1094 21.26C65.5494 21.51 65.0894 21.92 64.5794 22.25C64.9494 21.47 65.4194 20.72 65.6694 19.89C64.2794 20.87 63.0494 22.05 61.6094 22.96C61.9794 22.12 62.3494 21.28 62.6994 20.44C61.6994 21.29 60.8094 22.26 59.7594 23.05C59.9494 22.38 60.1694 21.73 60.3794 21.07C59.1194 21.93 57.8794 22.81 56.6094 23.66C56.9294 21.82 58.0594 20.15 59.6194 19.15Z" fill="#EE3D5E"/>
<path d="M18.5591 18.27C21.8091 17.12 25.8491 18.32 27.6791 21.31C28.1391 22.02 28.5091 22.8 28.5991 23.65C27.3391 22.8 26.0891 21.92 24.8291 21.06C25.0291 21.73 25.2791 22.38 25.4491 23.06C25.0391 22.82 24.7491 22.43 24.3891 22.12C23.7591 21.56 23.1391 20.99 22.4991 20.44C22.8091 21.3 23.2691 22.1 23.5891 22.96C22.1691 22.03 20.9091 20.88 19.5391 19.9C19.7991 20.74 20.2691 21.48 20.6291 22.27C20.2491 22 19.8891 21.7 19.4691 21.49C18.3191 20.9 17.1191 20.39 15.8691 20.04C16.6191 19.28 17.5391 18.62 18.5591 18.27Z" fill="#EE3D5E"/>
<path d="M13.86 22.08C14.44 21.14 14.96 20.15 15.73 19.34C15.45 20.76 14.93 22.12 14.58 23.53C13.59 27.49 12.8 31.51 12.57 35.59C12.37 39.32 12.65 43.09 13.67 46.69C13.9 47.59 14.32 48.44 14.49 49.35C14.78 48.44 15.25 47.53 16.04 46.95C17.12 46.13 18.58 45.99 19.87 46.29C21.78 46.74 23.48 48.01 24.46 49.71C24.7 50.09 24.68 50.59 24.33 50.9C23.78 50.63 23.28 50.18 22.64 50.15C21.92 50.12 21.27 50.49 20.71 50.89C19.98 51.42 19.57 52.28 19.43 53.15C19.22 54.47 19.46 55.82 19.92 57.06C20.2 57.81 20.69 58.5 21.39 58.91C22.41 59.51 23.59 59.83 24.78 59.86C25.96 59.9 27.14 59.7 28.32 59.76C30.65 59.97 32.99 60.02 35.3 60.38C41.22 61.23 47.04 62.76 53.03 63.13C53.74 63.17 54.45 63.21 55.15 63.15C56.36 63.06 57.61 63.08 58.78 62.72C60.16 62.25 61.54 61.64 62.58 60.6C64.27 59.28 65.44 57.32 65.86 55.23C66.11 53.93 65.99 52.43 65.09 51.39C64.51 50.75 63.74 50.16 62.84 50.14C62.1 50.13 61.52 50.65 60.85 50.88C60.67 50.48 60.57 50 60.85 49.62C61.9 47.95 63.61 46.64 65.57 46.27C66.42 46.12 67.33 46.01 68.15 46.32C69.05 46.66 69.86 47.29 70.35 48.13C70.57 48.5 70.6 48.94 70.78 49.33C70.96 48.59 71.25 47.89 71.41 47.14C71.73 45.79 72.15 44.47 72.34 43.1C73.11 38.23 72.68 33.25 71.75 28.44C71.33 26.26 70.83 24.1 70.25 21.96C70.02 21.06 69.56 20.23 69.49 19.3C69.56 19.38 69.71 19.54 69.78 19.62C72.21 23.16 74.22 27.05 75.19 31.26C75.71 33.6 76.14 35.99 76.1 38.4C76.11 40.62 76.01 42.86 75.56 45.04C74.84 49.2 73.25 53.19 71.06 56.8C70.17 58.31 69.06 59.66 68 61.04C67.08 62.17 66.01 63.17 64.96 64.17C63.32 65.45 61.78 66.88 59.99 67.95C56.25 70.26 52 71.75 47.64 72.34C42.97 72.99 38.15 72.82 33.6 71.52C31.06 70.81 28.59 69.84 26.31 68.51C24.65 67.54 23.07 66.44 21.56 65.25C21.05 64.86 20.57 64.43 20.11 63.98C19.36 63.23 18.52 62.57 17.84 61.75C15.37 58.89 13.28 55.67 11.81 52.18C11.11 50.51 10.57 48.79 10.08 47.05C9.22 43.89 9.08 40.59 9.13 37.34C9.24 35.52 9.49 33.7 9.87 31.91C10.57 28.43 12.05 25.13 13.86 22.08ZM13.78 22.73C13.11 24.19 12.53 25.69 11.98 27.2C11.44 28.65 11.09 30.16 10.81 31.68C10.2 35.14 9.97 38.69 10.32 42.2C10.49 43.63 10.72 45.04 11.01 46.45C11.54 49.03 12.46 51.51 13.5 53.92C13.86 54.77 14.34 55.56 14.98 56.23C15.94 57.24 16.93 58.23 18.05 59.05C17.25 57.66 16.46 56.27 15.81 54.8C15.74 54.59 15.49 54.58 15.31 54.54C14.72 54.44 14.06 54.29 13.72 53.75C14.27 53.8 14.82 53.9 15.37 53.93C15.05 53.07 14.72 52.21 14.39 51.35C13.79 51.27 13.03 51.25 12.64 50.72C13.14 50.7 13.64 50.71 14.14 50.7C13.84 49.62 13.45 48.58 13.14 47.5C12.6 47.45 11.96 47.47 11.55 47.07C12.01 47 12.48 46.97 12.95 46.95C12.74 45.96 12.52 44.98 12.31 43.99C12.03 43.73 11.61 43.7 11.27 43.56C11.57 43.47 11.86 43.38 12.16 43.29C12.1 42.69 12.06 42.09 12 41.49C11.97 41.32 11.99 41.07 11.79 40.99C11.33 40.84 10.68 41.04 10.42 40.51C10.91 40.39 11.41 40.39 11.9 40.5C11.8 39.59 11.79 38.67 11.81 37.76C11.39 37.63 10.96 37.49 10.66 37.16C10.68 37.13 10.71 37.07 10.73 37.04C11.09 37 11.45 37.06 11.81 37.1C11.82 36.31 11.89 35.51 11.9 34.72C11.44 34.64 10.97 34.49 10.69 34.1C11.12 34.06 11.56 34.07 11.99 34.14C12 33.57 12.1 33 12.16 32.42C11.7 32.4 11.16 32.34 10.95 31.85C11.38 31.85 11.77 32 12.15 32.18C12.32 31.47 12.38 30.73 12.51 30.01C12.77 28.32 13.21 26.66 13.6 24.99C13.92 23.61 14.32 22.25 14.84 20.94C14.36 21.46 14.08 22.11 13.78 22.73ZM70.37 20.94C70.53 21.53 70.82 22.08 70.98 22.68C71.44 24.28 71.84 25.9 72.21 27.52C72.59 29.04 72.79 30.6 73.03 32.15C73.43 32.01 73.83 31.85 74.26 31.85C74.02 32.3 73.51 32.43 73.04 32.42C73.1 32.99 73.2 33.57 73.23 34.14C73.66 34.07 74.09 34.07 74.52 34.1C74.23 34.49 73.77 34.65 73.31 34.73C73.32 35.53 73.39 36.32 73.41 37.12C73.81 37.06 74.22 36.97 74.61 37.14C74.28 37.46 73.85 37.64 73.41 37.77C73.43 38.68 73.41 39.6 73.32 40.51C73.79 40.42 74.27 40.41 74.74 40.5C74.73 40.56 74.72 40.68 74.72 40.75C74.32 40.9 73.89 40.94 73.47 40.97C73.33 40.97 73.26 41.12 73.25 41.24C73.16 41.92 73.13 42.6 73.06 43.27C73.35 43.31 73.65 43.34 73.94 43.38C73.61 43.59 73.19 43.71 72.91 43.99C72.67 44.97 72.47 45.96 72.27 46.94C72.74 46.96 73.21 46.99 73.67 47.06C73.25 47.45 72.61 47.43 72.07 47.49C71.74 48.56 71.43 49.63 71.1 50.69C71.59 50.69 72.09 50.68 72.58 50.7C72.18 51.23 71.43 51.26 70.83 51.33C70.5 52.19 70.17 53.05 69.85 53.92C70.4 53.89 70.95 53.79 71.5 53.74C71.07 54.46 70.17 54.39 69.49 54.66C68.76 56.14 68 57.61 67.17 59.03C67.65 58.75 68.04 58.35 68.45 57.99C69.13 57.37 69.82 56.75 70.43 56.06C71 55.43 71.33 54.65 71.69 53.89C72.12 52.86 72.6 51.86 72.97 50.81C73.79 48.55 74.31 46.2 74.7 43.84C75.28 39.13 75.17 34.29 73.98 29.68C73.52 27.65 72.7 25.72 71.91 23.79C71.44 22.82 71.06 21.78 70.37 20.94ZM16.09 47.84C15.28 48.64 14.99 49.85 15.17 50.95C15.27 51.75 15.72 52.44 15.96 53.2C16.1 52.25 16.33 51.29 16.85 50.48C17.44 49.53 18.43 48.83 19.55 48.69C20.79 48.49 21.98 48.91 23.17 49.19C22.88 48.72 22.41 48.4 21.97 48.07C21.07 47.39 19.97 46.97 18.84 46.89C17.85 46.81 16.8 47.12 16.09 47.84ZM65.42 47.04C64.08 47.41 62.81 48.15 61.97 49.28C62.67 49.05 63.36 48.76 64.11 48.71C65.25 48.55 66.5 48.67 67.42 49.41C68.61 50.31 69.18 51.83 69.23 53.29C69.7 52.3 70.22 51.25 70.08 50.13C70.03 49.18 69.67 48.19 68.89 47.6C67.93 46.8 66.58 46.72 65.42 47.04ZM18.05 50.03C17.33 50.65 16.96 51.57 16.76 52.48C16.46 53.85 16.99 55.22 17.6 56.42C17.52 55.62 17.36 54.83 17.44 54.02C17.51 52.87 17.94 51.76 18.63 50.84C19.05 50.25 19.6 49.78 20.11 49.27C19.37 49.34 18.62 49.54 18.05 50.03ZM65.11 49.26C65.73 49.81 66.4 50.35 66.82 51.09C67.29 51.92 67.67 52.83 67.8 53.79C67.92 54.61 67.7 55.43 67.71 56.26C68.08 55.66 68.28 54.98 68.45 54.31C68.78 53.03 68.41 51.66 67.69 50.58C67.12 49.73 66.11 49.29 65.11 49.26ZM20.88 62.24C20.92 62.59 20.93 62.98 21.19 63.26C21.59 63.7 22.17 63.98 22.76 64.01C23.44 64.03 24.09 63.79 24.75 63.7C25.92 63.5 27.12 63.56 28.3 63.57C29.35 63.57 30.37 63.84 31.39 64.04C30.79 64.36 30.09 64.36 29.47 64.61C28.37 65.04 27.28 65.52 26.19 65.97C26.19 66.18 26.19 66.4 26.19 66.62C27.03 67.16 28.02 67.42 29.02 67.4C30.32 67.34 31.61 67.19 32.91 67.23C34.38 67.26 35.84 67.52 37.3 67.69C38.93 67.89 40.56 68.13 42.19 68.36C45.7 68.84 49.22 69.44 52.77 69.34C54.01 69.16 55.28 68.93 56.38 68.3C51.99 68.24 47.66 67.33 43.49 66C38.82 64.6 34.29 62.69 29.47 61.83C26.63 61.23 23.63 61.29 20.88 62.24Z" fill="#EE3D5E"/>
<path d="M15.6406 21.86C16.6706 21.87 17.7306 21.94 18.6906 22.37C20.5106 23.19 22.0506 24.64 22.9006 26.45C23.9306 28.56 23.7506 31.16 22.5406 33.16C22.0706 31.72 21.9306 30.2 21.5306 28.74C21.1806 29.35 20.9306 30 20.6106 30.63C20.4106 29.32 20.3706 28 20.1906 26.69C19.9206 27.35 19.7106 28.04 19.5206 28.72C19.4706 28.92 19.3906 29.12 19.2706 29.29C19.0206 27.62 18.6606 25.96 18.4106 24.29C18.1906 24.85 18.0006 25.43 17.8606 26.02C17.8106 26.26 17.6906 26.49 17.5506 26.69C17.3506 24.92 16.4306 23.39 15.6406 21.86Z" fill="#EE3D5E"/>
<path d="M65.2709 23.02C66.5209 22.15 68.0709 21.85 69.5709 21.85C68.8009 23.39 67.8309 24.91 67.6609 26.67C67.5109 26.46 67.4009 26.24 67.3509 25.99C67.2109 25.4 67.0009 24.83 66.8109 24.25C66.5609 25.93 66.1809 27.59 65.9509 29.27C65.8509 29.14 65.7909 28.99 65.7509 28.84C65.5609 28.17 65.3009 27.53 65.1109 26.86C64.9509 28.08 64.8109 29.3 64.6609 30.51C64.3309 29.92 64.0109 29.32 63.6809 28.73C63.4109 30.02 63.1009 31.31 62.8709 32.6C62.8309 32.79 62.7409 32.96 62.6609 33.13C61.8409 31.68 61.4309 29.96 61.7309 28.3C62.1009 26.16 63.4809 24.25 65.2709 23.02Z" fill="#EE3D5E"/>
<path d="M7.42093 23.31C7.89093 23.19 8.37094 23.09 8.85094 22.99C5.23094 30.99 4.61093 40.28 7.12093 48.7C9.17093 55.66 13.3309 61.96 18.9109 66.6C22.2809 69.41 26.1509 71.62 30.2809 73.08C38.8409 76.12 48.5209 75.86 56.9009 72.32C63.7109 69.48 69.6209 64.53 73.6409 58.34C77.8609 51.89 79.9609 44.1 79.5709 36.4C79.3609 31.77 78.2609 27.19 76.3609 22.97C76.8409 23.06 77.3209 23.17 77.7909 23.29C81.2509 31.42 81.7409 40.75 79.1809 49.2C77.1609 55.96 73.2009 62.11 67.9109 66.78C62.4109 71.66 55.4709 74.91 48.1909 75.96C42.5509 76.79 36.7309 76.35 31.2809 74.65C24.1609 72.46 17.7409 68.1 13.0309 62.33C10.2909 58.98 8.12093 55.16 6.66093 51.09C3.43093 42.17 3.71093 32.04 7.42093 23.31Z" fill="#EE3D5E"/>
<path d="M27.9205 57.55C30.4905 56.97 33.1505 57.12 35.7605 57.31C38.1005 57.48 40.4105 57.9 42.7405 58.2C46.0605 58.64 49.4005 59 52.7605 58.99C54.3205 58.99 55.8905 58.87 57.4305 58.61C58.8205 58.47 60.1405 57.96 61.5305 57.75C59.9405 58.85 58.0305 59.36 56.1305 59.61C52.6605 60.07 49.1405 60.16 45.6605 59.86C40.5405 59.31 35.4605 58.35 30.3005 58.12C29.3905 58.09 28.4905 58.08 27.5805 58.16C26.9105 58.22 26.2305 58.13 25.5605 58.12C26.3705 57.99 27.1305 57.71 27.9205 57.55Z" fill="#EE3D5E"/>
<path d="M51.261 37.06V36.43C51.111 36.65 50.951 36.86 50.791 37.06H51.261Z" fill="#EE3D5E"/>
<path d="M56.3604 27.87C54.8904 21.05 48.5904 16.3 41.5904 16.84C38.1304 17.11 35.1604 18.47 32.7104 20.91C28.2904 25.32 27.3304 32.09 30.3304 37.57C33.4604 43.28 36.6104 48.97 39.7404 54.67C40.3704 55.82 41.3404 56.43 42.6304 56.43C43.9204 56.43 44.9004 55.82 45.5204 54.68C48.6604 48.97 51.8104 43.26 54.9504 37.55C56.0904 35.47 56.6504 33.23 56.6604 30.45C56.6904 29.85 56.5704 28.85 56.3604 27.87ZM43.6904 54.3C43.6904 54.3 42.6904 50.47 44.5004 48.84C46.6704 46.89 49.7604 43.38 49.7604 43.38L43.6904 54.3ZM42.6304 42.68C36.2104 42.68 31.0004 37.47 31.0004 31.04C31.0004 24.61 36.2104 19.4 42.6404 19.4C49.0704 19.4 54.2804 24.61 54.2804 31.04C54.2704 37.47 49.0604 42.68 42.6304 42.68Z" fill="#EE3D5E"/>
<path d="M34.0098 37.06H34.4798C34.3198 36.86 34.1598 36.65 34.0098 36.43V37.06Z" fill="#EE3D5E"/>
<path d="M47.4795 33.44H51.2495V32.82L51.0295 32.54H46.9395V31.63H50.3395L49.6895 30.79L48.2595 28.92H43.1695H42.0995H41.0195H36.9995L36.3095 29.82H45.8695V30.73H35.6195L35.4195 30.99L34.9295 31.63H38.3295V32.53H34.2395L34.0195 32.81V35.24H39.4095V34.34H35.6395V33.43H39.4095V32.98C39.4095 32.61 39.5895 32.27 39.8795 32.02C40.1695 31.77 40.5795 31.62 41.0195 31.62H44.2495C45.0295 31.62 45.6795 32.09 45.8295 32.7C45.8495 32.79 45.8595 32.88 45.8595 32.97V35.23H51.2495V34.33H47.4795V33.44ZM46.9395 29.82H48.0195V30.72H46.9395V29.82Z" fill="#EE3D5E"/>
<path d="M39.4009 34.35V35.25V34.35H35.6309H39.4009Z" fill="#EE3D5E"/>
<path d="M50.3512 31.63L49.7012 30.79L50.3512 31.63Z" fill="#EE3D5E"/>
<path d="M34.9199 31.63L35.4099 30.99L34.9199 31.63Z" fill="#EE3D5E"/>
<path d="M45.8301 32.72C45.8501 32.81 45.8601 32.9 45.8601 32.99C45.8701 32.9 45.8601 32.81 45.8301 32.72Z" fill="#EE3D5E"/>
<path d="M45.8711 29.82H36.3111H45.8711V30.73H35.6211H45.8711V29.82Z" fill="#EE3D5E"/>
<path d="M40.2408 40.68H45.0208C45.8808 40.48 46.7008 40.17 47.4608 39.78H37.8008C38.5708 40.18 39.3808 40.48 40.2408 40.68Z" fill="#EE3D5E"/>
<path d="M43.1796 28.01H42.0996V28.91H43.1796V28.01Z" fill="#EE3D5E"/>
<path d="M36.3605 38.87H48.9105C49.2805 38.59 49.6305 38.29 49.9605 37.97H35.3105C35.6405 38.29 35.9905 38.59 36.3605 38.87Z" fill="#EE3D5E"/>
<path d="M44.2505 32.54H41.0205C40.8105 32.54 40.6305 32.64 40.5405 32.79C40.5005 32.85 40.4805 32.92 40.4805 32.99V37.06H44.7905V32.99C44.7905 32.92 44.7705 32.85 44.7305 32.79C44.6405 32.64 44.4605 32.54 44.2505 32.54Z" fill="#EE3D5E"/>
<path d="M39.3998 36.16H34.0098V36.43C34.1598 36.65 34.3198 36.86 34.4798 37.06H39.3998V36.16Z" fill="#EE3D5E"/>
<path d="M39.3998 37.06V36.16H34.0098H39.3998V37.06Z" fill="#EE3D5E"/>
<path d="M43.1695 28.01H45.2595H47.5695L47.1295 27.44L46.8795 27.11H38.3895L37.6895 28.01H42.0995H43.1695Z" fill="#EE3D5E"/>
<path d="M45.2599 28.01H43.1699H45.2599H47.5699L47.1299 27.44L47.5699 28.01H45.2599Z" fill="#EE3D5E"/>
<path d="M44.5002 20.78H40.7702L32.2402 31.75C32.3002 32.22 32.3802 32.68 32.5002 33.13L37.2802 26.89L41.1102 21.89C41.1302 21.86 41.1602 21.84 41.1902 21.81C41.2902 21.73 41.4202 21.68 41.5702 21.68H43.7202C43.8502 21.68 43.9802 21.72 44.0702 21.79C44.1102 21.82 44.1402 21.85 44.1702 21.88L52.7802 33.12C52.9002 32.67 52.9802 32.21 53.0402 31.74L44.5002 20.78Z" fill="#EE3D5E"/>
<path d="M41.1795 21.81C41.1495 21.83 41.1195 21.86 41.0995 21.89C41.1295 21.86 41.1495 21.83 41.1795 21.81Z" fill="#EE3D5E"/>
<path d="M44.0703 21.79C44.1103 21.82 44.1403 21.85 44.1703 21.88C44.1403 21.85 44.1003 21.82 44.0703 21.79Z" fill="#EE3D5E"/>
<path d="M39.0801 26.2H46.1901L43.4201 22.59H41.8501L39.0801 26.2Z" fill="#EE3D5E"/>
<path d="M41.8501 22.59H43.4201H41.8501L39.0801 26.2L41.8501 22.59Z" fill="#EE3D5E"/>
<path d="M45.8711 37.06H50.7911C50.9611 36.86 51.1111 36.65 51.2611 36.43V36.16H45.8711V37.06Z" fill="#EE3D5E"/>
<path d="M45.8711 36.16V37.06V36.16H51.2611H45.8711Z" fill="#EE3D5E"/>
</svg>
