<svg width="14" height="12" viewBox="0 0 14 12" fill="none" xmlns="http://www.w3.org/2000/svg">
<path d="M13.8125 1.125C13.9062 1.125 14 1.0625 14 0.9375V0.1875C14 0.09375 13.9062 0 13.8125 0H0.1875C0.0625 0 0 0.09375 0 0.1875V0.9375C0 1.0625 0.0625 1.125 0.1875 1.125H13.8125ZM13.8125 6.125C13.9062 6.125 14 6.0625 14 5.9375V5.1875C14 5.09375 13.9062 5 13.8125 5H0.1875C0.0625 5 0 5.09375 0 5.1875V5.9375C0 6.0625 0.0625 6.125 0.1875 6.125H13.8125ZM13.8125 11.125C13.9062 11.125 14 11.0625 14 10.9375V10.1875C14 10.0938 13.9062 10 13.8125 10H0.1875C0.0625 10 0 10.0938 0 10.1875V10.9375C0 11.0625 0.0625 11.125 0.1875 11.125H13.8125Z" fill="#1A1A1A"/>
</svg>
