<svg width="100" height="81" viewBox="0 0 100 81" fill="none" xmlns="http://www.w3.org/2000/svg">
<path d="M33.17 27.8384C33.17 27.6326 33.17 24.6393 33.17 24.6393H31.3895C31.3895 24.6393 31.3895 27.5862 31.3895 27.6792C31.3895 28.2234 30.8846 28.5884 30.0342 28.5884C29.1439 28.5884 28.6589 28.2366 28.6589 27.6725C28.6589 27.5796 28.6589 24.6393 28.6589 24.6393H26.8584C26.8584 24.6393 26.8584 27.4335 26.8584 27.6725C26.8584 29.2521 28.1539 29.9225 29.9611 29.9225C31.8945 29.9225 33.17 29.2455 33.17 27.8384Z" fill="#AFAFAF"/>
<path d="M39.1666 29.8495V28.4623H35.991V24.6393H34.1904V29.8495H39.1666Z" fill="#AFAFAF"/>
<path d="M44.5173 25.9469V24.6393H38.292V25.9469H40.491V29.8495H42.3115V25.9469H44.5173Z" fill="#AFAFAF"/>
<path d="M46.911 29.8495V24.6393H45.084V29.8495H46.911Z" fill="#AFAFAF"/>
<path d="M55.2932 29.8495V24.6393H53.0409L51.6191 27.7655L50.2639 24.6393H47.9385V29.8495H49.6327V27.0354L50.8551 29.8495H52.37L53.6056 27.0354V29.8495H55.2932Z" fill="#AFAFAF"/>
<path d="M58.1151 28.8871H60.9322L61.3907 29.8495H63.3107L60.6797 24.6393H58.5338L55.75 29.8495H57.6301L58.1151 28.8871ZM60.3674 27.7189H58.6999L59.3576 26.4645L59.5569 25.9867L59.743 26.4579L60.3674 27.7189Z" fill="#AFAFAF"/>
<path d="M68.9584 25.9469V24.6393H62.7334V25.9469H64.9325V29.8495H66.753V25.9469H68.9584Z" fill="#AFAFAF"/>
<path d="M75.0118 29.8495V28.5552H71.2726V27.8782H74.8591V26.6106H71.2726V25.9401H74.9658V24.6393H69.5186V29.8495H75.0118Z" fill="#AFAFAF"/>
<path d="M40.4365 32.6191H38.7157C38.7157 32.6191 37.5929 35.8978 37.5929 35.9775C37.5929 35.8978 36.5432 32.6191 36.5432 32.6191H34.6763C34.6763 32.6191 33.6332 35.8978 33.6332 35.9775C33.6332 35.8978 32.5037 32.6191 32.5037 32.6191H30.5703L32.5237 37.8293H34.4703C34.4703 37.8293 35.52 34.7164 35.5267 34.6302C35.5333 34.7164 36.5764 37.8293 36.5764 37.8293H38.5296L40.4365 32.6191Z" fill="#AFAFAF"/>
<path d="M42.7909 37.8293V32.6191H40.9639V37.8293H42.7909Z" fill="#AFAFAF"/>
<path d="M49.8975 37.8293V32.6191H48.1967V35.4531L45.692 32.6191H43.8184V37.8293H45.5326V34.9288L48.117 37.8293H49.8975Z" fill="#AFAFAF"/>
<path d="M57.0156 37.8293V32.6191H55.3148V35.4531L52.81 32.6191H50.9365V37.8293H52.6506V34.9288L55.235 37.8293H57.0156Z" fill="#AFAFAF"/>
<path d="M63.5482 37.8293V36.535H59.8078V35.858H63.3953V34.5903H59.8078V33.9199H63.5017V32.6191H58.0537V37.8293H63.5482Z" fill="#AFAFAF"/>
<path d="M70.5715 34.2053C70.5715 33.7342 70.458 33.3956 70.2188 33.15C69.9066 32.8182 69.3688 32.6191 68.5445 32.6191H64.3926V37.8293H66.1665V35.9908H67.781L69.0769 37.8293H71.0566L69.4823 35.7053C69.8337 35.6523 70.1201 35.4399 70.3053 35.1877C70.4715 34.9554 70.5715 34.6102 70.5715 34.2053ZM68.8445 34.3712C68.8445 34.4576 68.831 34.5638 68.7837 34.6434C68.7174 34.7761 68.5445 34.8293 68.2593 34.8293H66.1731V33.8801H68.2255C68.5053 33.8801 68.6918 33.9266 68.7837 34.0992C68.831 34.1655 68.8445 34.2717 68.8445 34.3712Z" fill="#AFAFAF"/>
<path d="M33.9189 42.9553C33.9189 42.8701 33.9189 40.4093 33.9189 40.4093H33.2969C33.2969 40.4093 33.2969 42.86 33.2969 42.9152C33.2969 43.5065 32.74 43.8424 31.9373 43.8424C30.9892 43.8424 30.5225 43.4815 30.5225 42.9102C30.5225 42.855 30.5225 40.4093 30.5225 40.4093H29.8955C29.8955 40.4093 29.8955 42.7949 29.8955 42.8901C29.8955 43.9325 30.7082 44.3936 31.9123 44.3936C33.1563 44.3936 33.9189 43.9024 33.9189 42.9553Z" fill="#AFAFAF"/>
<path d="M38.3821 44.3435V43.7672H35.668V40.4093H35.041V44.3435H38.3821Z" fill="#AFAFAF"/>
<path d="M41.9458 40.9806V40.4093H37.7617V40.9806H39.5377V44.3435H40.1698V40.9806H41.9458Z" fill="#AFAFAF"/>
<path d="M46.4045 41.5218C46.4045 41.2412 46.3442 41.0357 46.2389 40.8703C46.0533 40.5947 45.697 40.4093 45.1052 40.4093H42.5566V44.3435H43.1737V42.6846H44.9696L46.0683 44.3435H46.7907L45.6018 42.5793C45.9027 42.5443 46.1385 42.3738 46.2639 42.1534C46.3543 42.003 46.4045 41.7825 46.4045 41.5218ZM45.7823 41.5719C45.7823 41.6822 45.7573 41.8176 45.7122 41.9078C45.6319 42.0531 45.4462 42.1283 45.1453 42.1333H43.1787C43.1787 42.1233 43.1787 40.9706 43.1787 40.9706H45.0299C45.4061 40.9706 45.6068 41.0608 45.7122 41.2312C45.7573 41.3114 45.7823 41.4466 45.7823 41.5719Z" fill="#AFAFAF"/>
<path d="M48.1904 43.3712H50.6436L51.1453 44.3435H51.8176L49.8208 40.4093H49.0834L47.0215 44.3435H47.6786L48.1904 43.3712ZM50.3827 42.8149H48.4613L49.2589 41.3064L49.4346 40.9405L49.6101 41.3064L50.3827 42.8149Z" fill="#AFAFAF"/>
<path d="M58.1796 43.9676C58.3351 43.7871 58.4054 43.5316 58.4054 43.2559C58.4054 42.9954 58.3301 42.7347 58.1746 42.5743C58.019 42.424 57.7682 42.2988 57.4923 42.2737C57.6528 42.2485 57.7782 42.1484 57.8635 42.0431C57.999 41.8877 58.0792 41.6371 58.0792 41.3866C58.0792 41.1209 57.999 40.8803 57.8284 40.7149C57.6428 40.5296 57.3267 40.4093 56.8852 40.4093H54.2363V44.3435H57.0809C57.6127 44.3435 57.9839 44.2082 58.1796 43.9676ZM57.432 41.5118C57.432 41.6872 57.3769 41.8426 57.2816 41.9328C57.1862 42.0381 57.0257 42.0832 56.8551 42.0832H54.8484V40.9505H56.7397C56.9705 40.9505 57.1461 40.9956 57.2665 41.1059C57.3719 41.2061 57.432 41.3515 57.432 41.5118ZM57.6327 43.5867C57.5073 43.7271 57.2916 43.7973 56.9755 43.7973H54.8484V42.6295H56.9907C57.2816 42.6295 57.4823 42.6896 57.6027 42.8049C57.713 42.9102 57.7582 43.0454 57.7582 43.2008C57.7582 43.3612 57.7231 43.4965 57.6327 43.5867Z" fill="#AFAFAF"/>
<path d="M62.9594 44.3435V43.7672H59.8993V42.6445H62.839V42.0732H59.8993V40.9806H62.9243V40.4093H59.2871V44.3435H62.9594Z" fill="#AFAFAF"/>
<path d="M67.8607 43.1807C67.8607 42.5392 67.435 42.2084 66.3863 42.0881C66.2103 42.0631 65.8289 42.023 65.6232 41.9979C64.65 41.8826 64.354 41.7524 64.354 41.4166C64.354 41.0909 64.6801 40.9054 65.6634 40.9054C66.4255 40.9054 66.8174 41.0558 67.0134 41.3263C67.0688 41.4015 67.0985 41.4918 67.1134 41.5619H67.785C67.7661 41.4466 67.7201 41.2862 67.6498 41.1559C67.3796 40.6899 66.8228 40.354 65.6634 40.354C64.2788 40.349 63.7069 40.8503 63.7069 41.4717C63.7069 42.0931 64.1534 42.4089 65.3123 42.5443C65.513 42.5693 65.869 42.6094 66.0447 42.6295C66.9431 42.7396 67.2242 42.875 67.2242 43.2509C67.2242 43.5967 66.9025 43.8473 65.874 43.8473C65.0313 43.8473 64.5797 43.6969 64.3992 43.4063C64.344 43.3261 64.3089 43.2008 64.3039 43.1156H63.6416C63.6567 43.296 63.7069 43.4914 63.7971 43.6468C64.0581 44.123 64.6701 44.3986 65.854 44.3986C67.2688 44.3986 67.8607 43.9425 67.8607 43.1807Z" fill="#AFAFAF"/>
<path d="M72.3596 40.9806V40.4093H68.1758V40.9806H69.9515V44.3435H70.5839V40.9806H72.3596Z" fill="#AFAFAF"/>
<path d="M28.1201 47.763C28.1201 47.3621 28.0399 47.0914 27.9043 46.8859C27.7138 46.5901 27.3424 46.4349 26.6953 46.4349H24.207V50.369H24.8291V49.086C24.8291 49.086 26.585 49.086 26.6703 49.086C27.2773 49.081 27.6937 48.9407 27.9145 48.62C28.0549 48.4245 28.1201 48.1438 28.1201 47.763ZM27.488 47.763C27.488 47.9633 27.4678 48.1137 27.4027 48.214C27.2873 48.3994 27.0515 48.5147 26.5649 48.5147C26.5197 48.5147 24.8291 48.5147 24.8291 48.5147V46.9962H26.585C27.0415 46.9962 27.2773 47.1014 27.4027 47.3068C27.4628 47.397 27.488 47.5625 27.488 47.763Z" fill="#AFAFAF"/>
<path d="M32.6606 50.369V49.7927H29.6003V48.6701H32.5402V48.0988H29.6003V47.0062H32.6254V46.4349H28.9883V50.369H32.6606Z" fill="#AFAFAF"/>
<path d="M37.4465 47.5474C37.4465 47.2667 37.3863 47.0613 37.2809 46.8959C37.0953 46.6202 36.7392 46.4349 36.1471 46.4349H33.5986V50.369H34.2157V48.7102H36.0117L37.1104 50.369H37.8328L36.6438 48.6049C36.9448 48.5699 37.1807 48.3994 37.3061 48.1789C37.3963 48.0286 37.4465 47.8081 37.4465 47.5474ZM36.8244 47.5975C36.8244 47.7078 36.7993 47.8432 36.7542 47.9334C36.6739 48.0786 36.4882 48.1538 36.1873 48.1588H34.2207C34.2207 48.1488 34.2207 46.9962 34.2207 46.9962H36.0719C36.4481 46.9962 36.6488 47.0864 36.7542 47.2568C36.7993 47.3369 36.8244 47.4722 36.8244 47.5975Z" fill="#AFAFAF"/>
<path d="M42.0975 47.0062V46.4349H38.5957V50.369H39.2177V48.6952H41.9671V48.1087H39.2177V47.0062H42.0975Z" fill="#AFAFAF"/>
<path d="M44.9527 46.3647C44.1149 46.3647 43.538 46.5702 43.1265 47.0012C42.7804 47.337 42.6299 47.8031 42.6299 48.3894C42.6299 49.0309 42.8256 49.5121 43.1868 49.8378C43.5731 50.2238 44.165 50.4241 44.9527 50.4241C45.7654 50.4241 46.3975 50.2238 46.7738 49.8177C47.0999 49.487 47.2704 49.016 47.2704 48.3844C47.2704 47.773 47.1249 47.3068 46.7788 46.9761C46.3825 46.5652 45.7904 46.3647 44.9527 46.3647ZM44.9527 49.8629C44.4008 49.8629 44.0095 49.7427 43.7135 49.5021C43.4126 49.2565 43.267 48.8805 43.267 48.3994C43.267 47.9484 43.3925 47.5725 43.6333 47.3469C43.9092 47.0864 44.3306 46.931 44.9477 46.931C45.5847 46.931 45.9811 47.0814 46.277 47.3419C46.528 47.5625 46.6383 47.9534 46.6383 48.3944C46.6383 48.8404 46.523 49.2214 46.267 49.4519C45.9711 49.7275 45.5547 49.8629 44.9527 49.8629Z" fill="#AFAFAF"/>
<path d="M51.9777 47.5474C51.9777 47.2667 51.9174 47.0613 51.8122 46.8959C51.6265 46.6202 51.2703 46.4349 50.6784 46.4349H48.1299V50.369H48.7469V48.7102H50.5429L51.6416 50.369H52.3639L51.175 48.6049C51.476 48.5699 51.7118 48.3994 51.8372 48.1789C51.9276 48.0286 51.9777 47.8081 51.9777 47.5474ZM51.3556 47.5975C51.3556 47.7078 51.3306 47.8432 51.2854 47.9334C51.2052 48.0786 51.0195 48.1538 50.7185 48.1588H48.7519C48.7519 48.1488 48.7519 46.9962 48.7519 46.9962H50.6031C50.9793 46.9962 51.18 47.0864 51.2854 47.2568C51.3306 47.3369 51.3556 47.4722 51.3556 47.5975Z" fill="#AFAFAF"/>
<path d="M57.9782 50.369V46.4349H57.1655L55.5451 49.6724L53.9547 46.4349H53.127V50.369H53.724V47.3419L55.2088 50.369H55.861L57.3811 47.3419V50.369H57.9782Z" fill="#AFAFAF"/>
<path d="M59.7402 49.3968H62.1935L62.6951 50.369H63.3674L61.3706 46.4349H60.6332L58.5713 50.369H59.2285L59.7402 49.3968ZM61.9325 48.8404H60.0112L60.8087 47.332L60.9844 46.9661L61.1599 47.332L61.9325 48.8404Z" fill="#AFAFAF"/>
<path d="M67.8865 50.369V46.4349H67.2892V49.492L64.6811 46.4349H63.9736V50.369H64.5807V47.2919L67.2094 50.369H67.8865Z" fill="#AFAFAF"/>
<path d="M73.2986 48.9007H72.6459C72.6257 49.081 72.5554 49.2615 72.4297 49.3968C72.1594 49.7125 71.7284 49.8478 71.0662 49.8478C70.5095 49.8478 69.9122 49.6924 69.6257 49.2865C69.4757 49.0961 69.3797 48.8155 69.3797 48.3944C69.3797 48.0186 69.4459 47.7379 69.5905 47.5474C69.8311 47.1616 70.3378 46.9611 71.0513 46.9611C71.7432 46.9611 72.1797 47.1515 72.4108 47.4171C72.5405 47.5574 72.6162 47.7229 72.6405 47.9183H73.2932C73.273 47.6978 73.2027 47.4371 73.0527 47.2167C72.7311 46.7405 72.1392 46.3647 71.0554 46.3647C70.023 46.3647 69.4054 46.6954 69.0635 47.1916C68.8432 47.4772 68.7324 47.8782 68.7324 48.3894C68.7324 48.9607 68.8689 49.3818 69.104 49.6774C69.4459 50.1436 70.1027 50.4241 71.0959 50.4241C72.1149 50.4241 72.7216 50.1185 73.023 49.6324C73.1932 49.3968 73.2784 49.1161 73.2986 48.9007Z" fill="#AFAFAF"/>
<path d="M77.7882 50.369V49.7927H74.7274V48.6701H77.6679V48.0988H74.7274V47.0062H77.7531V46.4349H74.1152V50.369H77.7882Z" fill="#AFAFAF"/>
<path d="M31.9077 54.2773L32.658 56.5842H35.086L33.1218 58.0099L33.8721 60.3166L31.9077 58.891L29.9434 60.3166L30.6938 58.0099L28.7295 56.5842H31.1575L31.9077 54.2773Z" fill="#AFAFAF"/>
<path d="M40.5693 54.2774L41.3348 56.5841H43.8124L41.8081 58.0099L42.5736 60.3168L40.5693 58.891L38.565 60.3168L39.3305 58.0099L37.3262 56.5841H39.8037L40.5693 54.2774Z" fill="#AFAFAF"/>
<path d="M49.163 54.2774L49.9287 56.5841H52.4061L50.4018 58.0099L51.1675 60.3168L49.163 58.891L47.1587 60.3168L47.9242 58.0099L45.9199 56.5841H48.3975L49.163 54.2774Z" fill="#AFAFAF"/>
<path d="M57.7558 54.2774L58.5213 56.5841H60.9989L58.9946 58.0099L59.7601 60.3168L57.7558 58.891L55.7515 60.3168L56.517 58.0099L54.5127 56.5841H56.9903L57.7558 54.2774Z" fill="#AFAFAF"/>
<path d="M66.4176 54.2774L67.1676 56.5841H69.596L67.6311 58.0099L68.3812 60.3168L66.4176 58.891L64.4532 60.3168L65.2036 58.0099L63.2393 56.5841H65.6672L66.4176 54.2774Z" fill="#AFAFAF"/>
<path d="M36.1159 15.3578L36.6832 17.102H38.519L37.0338 18.18L37.6011 19.9241L36.1159 18.8463L34.6307 19.9241L35.198 18.18L33.7129 17.102H35.5487L36.1159 15.3578Z" fill="#AFAFAF"/>
<path d="M42.6651 15.3555L43.244 17.0997H45.1171L43.6017 18.1776L44.1805 19.9217L42.6651 18.8437L41.1495 19.9217L41.7284 18.1776L40.2129 17.0997H42.0861L42.6651 15.3555Z" fill="#AFAFAF"/>
<path d="M49.1621 15.3555L49.7409 17.0997H51.6142L50.0987 18.1776L50.6775 19.9217L49.1621 18.8437L47.6466 19.9217L48.2255 18.1776L46.71 17.0997H48.5832L49.1621 15.3555Z" fill="#AFAFAF"/>
<path d="M55.6602 15.3555L56.239 17.0997H58.1122L56.5968 18.1776L57.1756 19.9217L55.6602 18.8437L54.1446 19.9217L54.7235 18.1776L53.208 17.0997H55.0813L55.6602 15.3555Z" fill="#AFAFAF"/>
<path d="M62.2086 15.3555L62.7759 17.0997H64.6117L63.1266 18.1776L63.6939 19.9217L62.2086 18.8437L60.7235 19.9217L61.2908 18.1776L59.8057 17.0997H61.6413L62.2086 15.3555Z" fill="#AFAFAF"/>
<path fill-rule="evenodd" clip-rule="evenodd" d="M9.96787 46.751C7.46436 31.1033 14.7708 15.6218 29.398 8.97357L29.533 9.27003C15.053 15.8513 7.80693 31.1813 10.2898 46.6996C13.0367 63.8679 26.9007 74.1644 43.8784 74.6608L43.8688 74.9864C26.7588 74.4861 12.743 64.0965 9.96787 46.751Z" fill="#AFAFAF"/>
<path d="M26.2267 12.967C23.5236 13.0286 20.3599 14.5514 18.4932 16.7632C19.9902 18.1519 22.3988 17.6385 24.1322 17.3545C26.6061 16.9492 29.2369 16.1641 31.5714 15.0526C30.6115 13.0114 28.0259 12.9261 26.2267 12.967Z" fill="#AFAFAF"/>
<path d="M24.1006 9.63577C22.4996 12.1273 20.5914 14.6036 18.515 16.7843C16.7777 15.1551 17.8263 12.4439 18.5354 10.7579C19.8198 7.70284 22.8994 5.06831 26.119 3.72034C27.0027 5.72873 25.0833 8.10649 24.1006 9.63577Z" fill="#AFAFAF"/>
<path d="M18.4046 19.9539C15.8735 20.8528 13.6985 23.3829 12.6064 25.9231C14.4264 26.7685 16.4955 25.5477 18.0091 24.7348C20.0875 23.6186 22.2079 22.0786 23.8763 20.2963C22.3689 18.7073 20.08 19.3591 18.4046 19.9539Z" fill="#AFAFAF"/>
<path d="M15.3367 17.4643C14.7826 20.306 13.8537 23.2514 12.6337 25.936C10.5042 24.9327 10.5853 22.0591 10.6765 20.2304C10.8322 17.1091 12.5802 13.5497 15.0138 11.2876C16.5037 12.8833 15.6896 15.654 15.3367 17.4643Z" fill="#AFAFAF"/>
<path d="M13.5341 28.9744C11.425 30.6365 10.1467 33.7168 9.85059 36.4674C11.8457 36.6962 13.4405 34.8824 14.6271 33.6379C16.2426 31.9436 17.7719 29.8184 18.7432 27.5951C16.8413 26.5585 14.9079 27.8917 13.5341 28.9744Z" fill="#AFAFAF"/>
<path d="M9.8805 27.5712C10.2566 30.4409 10.2574 33.5455 9.88117 36.4712C7.5609 36.1865 6.79131 33.4033 6.33671 31.6574C5.55185 28.6436 6.07807 24.7508 7.60698 21.821C9.51766 22.8776 9.64023 25.7369 9.8805 27.5712Z" fill="#AFAFAF"/>
<path d="M11.8798 38.8206C10.2109 41.2629 9.62397 45.0903 10.3745 48.1666C12.5799 47.645 13.6732 45.1506 14.551 43.389C15.7176 41.0477 16.7037 38.3162 17.0567 35.6364C14.6646 35.139 12.9791 37.2117 11.8798 38.8206Z" fill="#AFAFAF"/>
<path d="M7.49792 38.5737C8.79819 41.581 9.81292 44.8911 10.4067 48.1592C7.87738 48.702 6.05697 46.0487 4.9994 44.2894C3.11657 41.1577 2.56805 36.8162 3.25778 33.0697C5.57278 33.5334 6.70562 36.7417 7.49792 38.5737Z" fill="#AFAFAF"/>
<path d="M13.0469 49.4466C12.1508 52.4093 12.7737 56.437 14.588 59.2224C16.5818 57.9256 16.8577 55.0714 17.1403 53.0249C17.5129 50.3244 17.6883 47.3328 17.2254 44.5325C14.6753 44.8577 13.6454 47.4674 13.0469 49.4466Z" fill="#AFAFAF"/>
<path d="M8.61556 50.7149C10.8529 53.2795 12.9166 56.2036 14.6187 59.2032C12.3103 60.6428 9.6015 58.676 7.95867 57.2842C5.04421 54.8152 3.15177 50.6187 2.70312 46.6624C5.12853 46.3368 7.26596 49.1677 8.61556 50.7149Z" fill="#AFAFAF"/>
<path d="M17.7488 59.5306C17.9411 62.9791 20.1886 66.5978 23.181 68.6575C24.6261 66.681 23.7203 63.6525 23.2274 61.5385C22.5637 58.6923 21.6452 55.7286 20.2802 53.0988C17.8999 54.3553 17.6222 57.2595 17.7488 59.5306Z" fill="#AFAFAF"/>
<path d="M13.7245 62.4436C16.9666 64.2433 20.1993 66.367 23.2049 68.6267C21.4049 70.9946 17.8071 70.0504 15.5768 69.2893C11.6466 67.9481 8.14264 64.4124 6.3125 60.4843C8.63291 59.2903 11.8094 61.3805 13.7245 62.4436Z" fill="#AFAFAF"/>
<path d="M26.9819 67.9555C28.9277 71.503 33.3619 73.8173 37.5376 74.3744C37.987 71.7954 35.1937 69.2419 33.6715 67.5714C31.5043 65.1931 29.2461 62.725 26.7142 60.6687C24.8173 62.8689 25.8202 65.8374 26.9819 67.9555Z" fill="#AFAFAF"/>
<path d="M24.2036 72.4516C28.6267 72.911 33.1248 73.5723 37.5453 74.3349C37.1233 77.589 31.9542 78.1141 29.6076 78.3062C24.7961 78.7002 19.4437 76.768 15.7168 73.5153C17.5679 71.3394 21.8475 72.2069 24.2036 72.4516Z" fill="#AFAFAF"/>
<path d="M32.7232 6.24241C29.7537 7.08873 26.2777 8.69428 24.5605 11.6581C27.6774 11.3187 30.7408 10.2107 33.7366 9.36658C37.0923 8.42091 40.6257 7.71364 43.8746 6.40833C40.3165 4.98624 36.1222 5.27365 32.7232 6.24241Z" fill="#AFAFAF"/>
<path fill-rule="evenodd" clip-rule="evenodd" d="M90.1733 46.6996C92.6558 31.1813 85.4098 15.8516 70.9301 9.27003L71.0652 8.97357C85.6923 15.6219 92.999 31.1033 90.495 46.751C87.7206 64.0965 73.7044 74.4861 56.5944 74.9864L56.585 74.6608C73.5625 74.1644 87.426 63.8679 90.1733 46.6996Z" fill="#AFAFAF"/>
<path d="M74.2362 12.967C76.9389 13.0286 80.1024 14.5514 81.97 16.7632C80.4727 18.1519 78.0632 17.6385 76.3308 17.3545C73.8565 16.9492 71.2254 16.1641 68.8916 15.0526C69.8511 13.0114 72.4362 12.9261 74.2362 12.967Z" fill="#AFAFAF"/>
<path d="M76.3626 9.63577C77.964 12.1273 79.8721 14.6036 81.9478 16.7843C83.6856 15.1551 82.6369 12.4439 81.9275 10.7579C80.6437 7.70284 77.564 5.06831 74.3437 3.72034C73.4599 5.72873 75.3802 8.10649 76.3626 9.63577Z" fill="#AFAFAF"/>
<path d="M82.0595 19.9539C84.5906 20.8528 86.7649 23.3829 87.8568 25.9231C86.0365 26.7685 83.9676 25.5477 82.4541 24.7348C80.3757 23.6186 78.2555 22.0786 76.5879 20.2963C78.0946 18.7073 80.3838 19.3591 82.0595 19.9539Z" fill="#AFAFAF"/>
<path d="M85.1273 17.4643C85.6813 20.306 86.6097 23.2514 87.83 25.936C89.9597 24.9327 89.8786 22.0591 89.7867 20.2304C89.6313 17.1091 87.884 13.5497 85.4502 11.2876C83.9597 12.8833 84.7746 15.654 85.1273 17.4643Z" fill="#AFAFAF"/>
<path d="M86.9288 28.9744C89.0383 30.6365 90.3167 33.7168 90.6126 36.4674C88.618 36.6962 87.0234 34.8824 85.8369 33.6379C84.2207 31.9436 82.691 29.8184 81.7207 27.5951C83.6221 26.5585 85.5558 27.8917 86.9288 28.9744Z" fill="#AFAFAF"/>
<path d="M90.5837 27.5712C90.2067 30.4406 90.2067 33.5455 90.5824 36.4712C92.9026 36.1865 93.6729 33.4033 94.127 31.6574C94.9121 28.6436 94.3851 24.7508 92.8567 21.821C90.9459 22.8776 90.8229 25.7369 90.5837 27.5712Z" fill="#AFAFAF"/>
<path d="M88.5843 38.8206C90.2532 41.2629 90.8397 45.0903 90.0897 48.1666C87.8843 47.645 86.791 45.1507 85.9126 43.389C84.7464 41.0477 83.7599 38.3162 83.4072 35.6364C85.7991 35.139 87.4856 37.2117 88.5843 38.8206Z" fill="#AFAFAF"/>
<path d="M92.9647 38.5737C91.6647 41.581 90.6499 44.8911 90.0566 48.1592C92.585 48.702 94.4053 46.0487 95.4634 44.2894C97.3458 41.1577 97.8945 36.8162 97.2053 33.0697C94.8904 33.5334 93.7566 36.7417 92.9647 38.5737Z" fill="#AFAFAF"/>
<path d="M87.4159 49.4466C88.3118 52.4093 87.6902 56.437 85.8753 59.2224C83.8821 57.9256 83.6051 55.0714 83.3226 53.0249C82.951 50.3244 82.7753 47.3328 83.2375 44.5325C85.7875 44.8577 86.8172 47.4674 87.4159 49.4466Z" fill="#AFAFAF"/>
<path d="M91.8474 50.7149C89.6109 53.2797 87.5474 56.2036 85.8447 59.2032C88.1528 60.6428 90.8623 58.676 92.5055 57.2842C95.4191 54.8152 97.3123 50.6187 97.7609 46.6624C95.3353 46.3368 93.1974 49.1677 91.8474 50.7149Z" fill="#AFAFAF"/>
<path d="M82.7131 59.5306C82.5212 62.9791 80.2739 66.5978 77.282 68.6575C75.8361 66.681 76.7428 63.6526 77.2347 61.5385C77.8982 58.6923 78.8171 55.7286 80.182 53.0988C82.5631 54.3553 82.8401 57.2595 82.7131 59.5306Z" fill="#AFAFAF"/>
<path d="M86.7395 62.4436C83.4976 64.2433 80.2652 66.367 77.2598 68.6267C79.0598 70.9946 82.6571 70.0504 84.8868 69.2893C88.8179 67.9481 92.3219 64.4124 94.1517 60.4843C91.8314 59.2903 88.6544 61.3805 86.7395 62.4436Z" fill="#AFAFAF"/>
<path d="M73.4812 67.9555C71.5353 71.503 67.1015 73.8173 62.9253 74.3744C62.4758 71.7954 65.2691 69.2419 66.7921 67.5714C68.9583 65.1931 71.2164 62.725 73.7488 60.6687C75.6461 62.8689 74.6421 65.8374 73.4812 67.9555Z" fill="#AFAFAF"/>
<path d="M76.2596 72.4516C71.8366 72.911 67.3393 73.5723 62.918 74.3349C63.3401 77.589 68.5096 78.1141 70.8555 78.3062C75.6677 78.7002 81.0204 76.768 84.7461 73.5153C82.8961 71.3394 78.6163 72.2069 76.2596 72.4516Z" fill="#AFAFAF"/>
<path d="M67.7404 6.24241C70.7093 7.08873 74.1863 8.69428 75.9025 11.6581C72.7863 11.3187 69.7228 10.2107 66.7268 9.36658C63.3712 8.42091 59.8378 7.71364 56.5889 6.40833C60.1471 4.98624 64.3413 5.27365 67.7404 6.24241Z" fill="#AFAFAF"/>
<path d="M52.1625 4.70864L50.6389 1.34998L49.1439 4.64614L45.667 2.49262L47.9012 7.18292H53.4574L55.6109 2.49262L52.1625 4.70864Z" fill="#AFAFAF"/>
<path d="M53.4214 7.9118H47.8564V8.7322H53.4214V7.9118Z" fill="#AFAFAF"/>
<path d="M51.0367 71.377L51.9334 74.1339H54.8352L52.4876 75.8378L53.3842 78.5947L51.0367 76.8909L48.6891 78.5947L49.5859 75.8378L47.2383 74.1339H50.14L51.0367 71.377Z" fill="#AFAFAF"/>
</svg>
