<svg width="140" height="69" viewBox="0 0 140 69" fill="none" xmlns="http://www.w3.org/2000/svg">
<path d="M10.9167 14.8325C10.0532 12.6901 10.428 10.2266 11.2235 8.15476C12.0603 5.97463 13.5176 3.80046 15.6955 2.65387C15.8036 4.9513 15.0847 7.22114 14.2992 9.26792C13.5928 11.1089 12.7261 13.0702 11.2948 14.5927C11.0749 15.7464 10.9063 16.8968 10.7878 18.0419C11.2622 16.8322 12.0314 15.7295 12.9911 14.8429C14.2268 13.7012 16.0648 12.8202 17.7902 13.3412C17.2849 15.2031 16.1329 16.988 14.7687 18.24C13.6949 19.2255 12.2774 20.4884 10.6077 20.538C10.5389 22.2232 10.5778 23.893 10.7199 25.5401C10.9554 24.3347 11.4601 23.1997 12.1893 22.3544C13.1911 21.193 14.6764 19.774 16.5733 20.0114C16.4698 21.8958 15.6998 23.8267 14.6275 25.2775C13.7754 26.4305 12.6505 27.8999 11.0538 28.2795C11.3095 29.898 11.6656 31.4896 12.1174 33.047C12.1218 31.8545 12.3916 30.6841 12.9268 29.7453C13.6812 28.4214 14.8561 26.7704 16.7552 26.6413C17.0336 28.4901 16.6564 30.5112 15.8955 32.1186C15.2874 33.4035 14.4766 35.0419 12.9987 35.7199C13.6193 37.3955 14.3537 39.0243 15.1958 40.5964C14.9001 39.2414 14.912 37.8135 15.2618 36.5288C15.7439 34.7576 16.9407 32.8971 18.8621 32.3572C19.5413 34.3125 19.4477 36.4948 19.0531 38.4823C18.7284 40.1186 18.0904 42.0405 16.6602 43.1035C17.5952 44.5765 18.6296 45.9902 19.7576 47.3354C19.1515 46.0161 18.8503 44.5734 19.0119 43.2524C19.2473 41.3281 19.8012 39.2695 21.8146 38.2435C22.9569 40.1676 23.2216 42.3261 23.3186 44.4581C23.397 46.1816 23.1427 48.3075 21.9166 49.7096C23.2653 51.0786 24.7207 52.3599 26.2751 53.5414C25.2715 52.2846 24.5688 50.8099 24.42 49.3515C24.2099 47.2909 24.3126 45.0225 26.1858 43.5104C27.7877 45.1438 28.7437 47.5494 29.2122 49.6388C29.6265 51.4861 30.059 53.6726 29.0726 55.4906C31.0508 56.7512 33.1627 57.8618 35.3954 58.8024C33.8243 57.7094 32.5382 56.2098 31.9255 54.6616C31.1226 52.632 30.6259 50.2137 32.19 48.1811C34.2855 49.4915 35.8256 51.7271 37.039 53.766C38.0802 55.5156 39.1579 57.9303 38.6232 60.014C39.8594 60.4235 41.1276 60.7831 42.426 61.0898L42.3488 61.401C41.0455 61.093 39.7724 60.7322 38.5312 60.3216C37.6615 62.8304 34.8127 63.6592 32.5089 64.0251C29.2262 64.5465 25.3175 63.5363 22.515 61.5013C23.9941 59.4606 27.012 59.2536 29.2876 59.0975L29.3173 59.0955C31.8102 58.9244 34.5065 59.1529 37.0135 59.7888C34.1174 58.7125 31.4075 57.3593 28.9087 55.7685L28.8719 55.8253C27.5026 57.9928 24.7534 58.0773 22.5955 57.9403C19.6673 57.7542 16.2867 56.0161 14.3301 53.6134C16.1705 52.037 18.8888 52.4782 20.995 52.8201L21.0052 52.8216C23.356 53.2031 25.9248 54.0354 28.0811 55.3168C27.8757 55.1589 27.6747 54.9918 27.4793 54.8167C25.3829 53.3575 23.449 51.7252 21.6941 49.9455C21.6737 49.9654 21.653 49.9852 21.6322 50.0049C19.9259 51.6806 17.4407 51.2418 15.5012 50.6964C12.9058 49.9666 10.2141 47.7649 8.92419 45.2372C10.9231 44.1438 13.3129 45.0448 15.1717 45.7575C17.2119 46.5397 19.3705 47.791 21.0302 49.3861C20.8591 49.1754 20.6959 48.9553 20.5416 48.7274C18.9989 47.0276 17.6111 45.2075 16.3911 43.2873L16.3299 43.3247C14.3995 44.5409 12.2124 43.6602 10.479 42.7941C8.12878 41.6199 6.24013 39.0393 5.42406 36.5014C7.50897 35.8495 9.56887 37.1291 11.1702 38.1424C12.9215 39.2507 14.6956 40.8313 15.9133 42.644C15.8239 42.4654 15.7405 42.2828 15.6637 42.0968C14.4937 40.104 13.4997 38.012 12.6951 35.8418L12.6536 35.8556L12.6502 35.8568C10.8951 36.5082 8.9405 35.4955 7.66623 34.3848C5.89516 32.8414 4.64685 30.4684 4.35421 28.1502C6.18413 27.9188 7.90817 29.3009 9.08689 30.4797C10.4437 31.8365 11.6614 33.4401 12.4101 35.2212C12.3554 35.0277 12.3085 34.8312 12.2691 34.6327C11.5879 32.5934 11.0718 30.4902 10.7316 28.34L10.705 28.3432L10.6961 28.3447C8.84046 28.6471 7.12485 27.2699 6.09986 25.9333C4.6618 24.0577 3.92048 21.4618 4.10629 19.109C5.9547 19.2352 7.36217 20.9519 8.27489 22.3405C9.33128 23.9481 10.2073 25.7674 10.591 27.6707C10.5793 27.5193 10.5724 27.367 10.5699 27.2143C10.2882 25.0259 10.1877 22.7927 10.2796 20.5319L10.2743 20.5316C8.38771 20.4653 6.99342 18.7553 6.27357 17.2385C5.24355 15.0679 5.07773 12.3242 5.76522 10.0119C7.56334 10.5046 8.56577 12.5182 9.15743 14.0682C9.83963 15.8553 10.3158 17.8044 10.3196 19.7423C10.4177 18.1165 10.6153 16.4779 10.9167 14.8325Z" fill="#AFAFAF"/>
<path d="M48.0736 10.8216V18.5838C48.0736 21.9979 44.9064 23.6405 40.106 23.6405C35.6191 23.6405 32.4023 22.0141 32.4023 18.1812V10.8216H36.8728V18.1812C36.8728 19.5501 38.077 20.4036 40.2875 20.4036C42.399 20.4036 43.6528 19.5178 43.6528 18.1973V10.8216H48.0736Z" fill="#AFAFAF"/>
<path d="M62.9621 20.0976V23.4633H50.6064V10.8216H55.0769V20.0976H62.9621Z" fill="#AFAFAF"/>
<path d="M76.248 13.9941V10.8216H60.791V13.9941H66.2513V23.4633H70.7713V13.9941H76.248Z" fill="#AFAFAF"/>
<path fill-rule="evenodd" clip-rule="evenodd" d="M92.1053 12.11C92.6993 12.7058 92.9806 13.5272 92.9806 14.6705C92.9806 15.6529 92.7332 16.4903 92.32 17.0539C91.8579 17.6659 91.1484 18.1812 90.2744 18.3101L94.1849 23.4633H89.2686L86.0513 19.0025H82.0432V23.4633H77.6387V10.8216H87.9488C89.9944 10.8216 91.3305 11.3047 92.1053 12.11ZM88.5428 15.7335C88.6583 15.5401 88.6909 15.2824 88.6909 15.0732C88.6909 14.8316 88.6583 14.5739 88.5428 14.4129C88.3117 13.9941 87.8496 13.8815 87.1564 13.8815H82.0597V16.1844H87.2393C87.9488 16.1844 88.3783 16.0555 88.5428 15.7335Z" fill="#AFAFAF"/>
<path fill-rule="evenodd" clip-rule="evenodd" d="M100.136 21.1283H107.13L108.268 23.4633H113.036L106.503 10.8216H101.175L94.2637 23.4633H98.9313L100.136 21.1283ZM105.727 18.2939H101.587L103.221 15.2503L103.716 14.0907L104.178 15.2341L105.727 18.2939Z" fill="#AFAFAF"/>
<path fill-rule="evenodd" clip-rule="evenodd" d="M91.6333 25.8442C88.8659 25.8442 87.4102 27.1247 87.4102 29.0063C87.4102 31.13 88.9379 32.2074 91.6333 32.2074C94.6005 32.2074 95.8482 30.9582 95.8482 29.0063C95.8482 27.0232 94.4401 25.8442 91.6333 25.8442ZM91.6333 30.6381C90.0579 30.6381 89.6012 30.0057 89.6012 29.0298C89.6012 28.0695 90.0973 27.4371 91.6251 27.4371C93.297 27.4371 93.6721 28.1475 93.6721 29.0298C93.6721 29.9667 93.2168 30.6381 91.6333 30.6381Z" fill="#AFAFAF"/>
<path d="M83.3085 32.1137V28.4832H79.1338V29.8027H81.3651C81.3492 29.9042 81.2691 30.0994 81.1652 30.2164C80.9333 30.482 80.3174 30.7162 79.5176 30.7162C78.6859 30.7162 78.1501 30.5053 77.8622 30.1774C77.6703 29.9354 77.5583 29.5919 77.5583 29.0766C77.5583 28.5379 77.6703 28.171 77.8862 27.929C78.1981 27.5854 78.7259 27.4371 79.5017 27.4371C80.1975 27.4371 80.6773 27.5931 80.9013 27.7883C81.0453 27.9055 81.1571 28.0695 81.1812 28.1787H83.2525C83.2446 27.9835 83.1806 27.6713 83.0686 27.4449C82.5728 26.4611 81.4211 25.8755 79.4618 25.8755C77.7583 25.8755 76.6146 26.383 75.9828 27.1482C75.5669 27.6713 75.375 28.327 75.375 29.061C75.375 29.873 75.5989 30.5678 75.9668 31.0285C76.5906 31.8171 77.7023 32.2074 79.0378 32.2074C80.2136 32.2074 81.0212 31.9341 81.5331 31.5204L81.5891 32.1137H83.3085Z" fill="#AFAFAF"/>
<path d="M61.5232 28.4052C63.1467 28.5769 63.8424 29.1391 63.8424 30.2087C63.8424 31.5047 62.5468 32.2073 59.9956 32.2073C57.6203 32.2073 56.5967 31.5516 56.2047 30.6928C56.1168 30.4898 56.0768 30.2399 56.0527 30.0837H58.3561C58.3721 30.1774 58.4281 30.3179 58.508 30.4116C58.7 30.6381 59.2358 30.7708 60.1475 30.7708C61.3233 30.7708 61.6031 30.6068 61.6031 30.3024C61.6031 29.9744 61.3152 29.9042 60.2515 29.7948C59.8277 29.7558 59.1558 29.6933 58.876 29.67C56.8446 29.4903 56.0928 28.8736 56.0928 27.8196C56.0928 26.7265 57.4204 25.8912 59.8436 25.8912C61.995 25.8912 62.9947 26.5158 63.4106 27.2965C63.5385 27.5307 63.6184 27.7961 63.6425 27.9835H61.3392C61.3311 27.8976 61.2992 27.8118 61.2113 27.7024C61.0352 27.4761 60.5874 27.3277 59.7876 27.3277C58.66 27.3277 58.3641 27.4604 58.3641 27.7414C58.3641 28.0538 58.7401 28.1241 59.9956 28.2568C60.4834 28.2958 61.2592 28.3738 61.5232 28.4052Z" fill="#AFAFAF"/>
<path fill-rule="evenodd" clip-rule="evenodd" d="M38.5617 26.5079C38.9855 26.8358 39.2254 27.3902 39.2254 28.1943C39.2254 28.8502 39.0575 29.342 38.7376 29.6855C38.3057 30.1696 37.5939 30.3883 36.6663 30.3961C36.3782 30.4039 33.9151 30.3961 33.9151 30.3961V32.1137H31.7637V25.9849H36.6342C37.498 25.9849 38.1538 26.1566 38.5617 26.5079ZM36.9702 28.6706C37.0341 28.5614 37.0661 28.4207 37.0661 28.2255C37.0661 28.0226 37.026 27.8508 36.9541 27.7571C36.8182 27.5619 36.5623 27.4682 36.1464 27.4682H33.899V28.9673H36.1303C36.5782 28.9673 36.8421 28.8657 36.9702 28.6706Z" fill="#AFAFAF"/>
<path fill-rule="evenodd" clip-rule="evenodd" d="M47.0959 26.6094C47.3839 26.8983 47.5198 27.2965 47.5198 27.8508C47.5198 28.327 47.3998 28.7331 47.1999 29.0063C46.976 29.303 46.6321 29.5528 46.2082 29.6153L48.1036 32.1137H45.7204L44.1608 29.951H42.2174V32.1137H40.082V25.9849H45.0806C46.0723 25.9849 46.7201 26.2191 47.0959 26.6094ZM45.3685 28.3662C45.4245 28.2725 45.4404 28.1475 45.4404 28.046C45.4404 27.9289 45.4245 27.8039 45.3685 27.7259C45.2565 27.5229 45.0326 27.4682 44.6967 27.4682H42.2254V28.5847H44.7367C45.0806 28.5847 45.2885 28.5222 45.3685 28.3662Z" fill="#AFAFAF"/>
<path d="M55.404 32.1137V30.5913H50.9015V29.7949H55.2201V28.3037H50.9015V27.5151H55.348V25.9849H48.79V32.1137H55.404Z" fill="#AFAFAF"/>
<path d="M71.6245 27.5229V25.9849H64.1309V27.5229H66.7779V32.1137H68.9693V27.5229H71.6245Z" fill="#AFAFAF"/>
<path d="M74.506 25.9849V32.1137H72.3066V25.9849H74.506Z" fill="#AFAFAF"/>
<path d="M86.5416 25.9849V32.1137H84.3418V25.9849H86.5416Z" fill="#AFAFAF"/>
<path d="M104.334 25.9849V29.748C104.334 31.4032 102.798 32.1996 100.471 32.1996C98.2967 32.1996 96.7363 31.411 96.7363 29.5528V25.9849H98.9043V29.5528C98.9043 30.2164 99.4874 30.6303 100.56 30.6303C101.583 30.6303 102.191 30.2009 102.191 29.5607V25.9849H104.334Z" fill="#AFAFAF"/>
<path d="M112.967 30.2087C112.967 29.1391 112.272 28.5769 110.649 28.4052C110.384 28.3738 109.609 28.2958 109.121 28.2568C107.865 28.1241 107.488 28.0538 107.488 27.7414C107.488 27.4604 107.785 27.3277 108.913 27.3277C109.712 27.3277 110.161 27.4761 110.336 27.7024C110.424 27.8118 110.456 27.8976 110.464 27.9835H112.768C112.743 27.7961 112.663 27.5307 112.535 27.2965C112.119 26.5158 111.12 25.8912 108.969 25.8912C106.545 25.8912 105.217 26.7265 105.217 27.8196C105.217 28.8736 105.97 29.4903 108.001 29.67L108.131 29.6813L108.349 29.7006L109.376 29.7948C110.441 29.9042 110.727 29.9744 110.727 30.3024C110.727 30.6068 110.449 30.7708 109.273 30.7708C108.361 30.7708 107.826 30.6381 107.632 30.4116C107.554 30.3179 107.497 30.1774 107.482 30.0837H105.178C105.202 30.2399 105.242 30.4898 105.33 30.6928C105.721 31.5516 106.745 32.2073 109.121 32.2073C111.672 32.2073 112.967 31.5047 112.967 30.2087Z" fill="#AFAFAF"/>
<path fill-rule="evenodd" clip-rule="evenodd" d="M57.0423 34.4603C55.2439 34.4603 54.2979 35.2926 54.2979 36.5155C54.2979 37.8956 55.2906 38.5958 57.0423 38.5958C58.9707 38.5958 59.7815 37.784 59.7815 36.5155C59.7815 35.2266 58.8667 34.4603 57.0423 34.4603ZM57.0423 37.5759C56.0184 37.5759 55.722 37.1649 55.722 36.5306C55.722 35.9065 56.0443 35.4955 57.0371 35.4955C58.1234 35.4955 58.3678 35.9572 58.3678 36.5306C58.3678 37.1395 58.0715 37.5759 57.0423 37.5759Z" fill="#AFAFAF"/>
<path d="M47.0402 37.2969C47.0402 36.6017 46.588 36.2363 45.5329 36.1247C45.3613 36.1044 44.8572 36.0537 44.5401 36.0284C43.724 35.942 43.4798 35.8963 43.4798 35.6934C43.4798 35.5107 43.6721 35.4245 44.405 35.4245C44.9247 35.4245 45.2158 35.5208 45.3302 35.668C45.3873 35.7391 45.4081 35.7948 45.4134 35.8507H46.9103C46.8947 35.7289 46.8427 35.5564 46.7596 35.4042C46.4892 34.8968 45.8395 34.4908 44.4413 34.4908C42.8665 34.4908 42.0036 35.0337 42.0036 35.7441C42.0036 36.4292 42.4921 36.8301 43.8124 36.9467C43.9944 36.962 44.4309 37.0026 44.7064 37.0279C45.3977 37.0989 45.5848 37.1447 45.5848 37.3578C45.5848 37.5556 45.4029 37.6622 44.6389 37.6622C44.0463 37.6622 43.698 37.5759 43.5733 37.4288C43.5213 37.3679 43.4849 37.2766 43.4746 37.2157H41.9775C41.9932 37.3172 42.0191 37.4795 42.0764 37.6115C42.3311 38.1696 42.9964 38.5958 44.5401 38.5958C46.1982 38.5958 47.0402 38.1392 47.0402 37.2969Z" fill="#AFAFAF"/>
<path fill-rule="evenodd" clip-rule="evenodd" d="M36.6628 37.4085C36.6628 37.6825 36.5847 37.9515 36.4288 38.129C36.1897 38.4132 35.7427 38.5349 35.1658 38.5349H31.543V34.5516H35.067C35.6284 34.5516 35.9871 34.6837 36.1846 34.8815C36.3613 35.054 36.4393 35.2824 36.4393 35.5411C36.4393 35.8 36.3769 36.0131 36.2418 36.1703C36.1325 36.3024 35.9455 36.4038 35.748 36.4292C36.039 36.4647 36.3145 36.6068 36.4704 36.8046C36.6004 36.9518 36.6628 37.1751 36.6628 37.4085ZM34.9111 36.0131C34.963 35.9572 34.9943 35.876 34.9943 35.7797C34.9943 35.6832 34.963 35.602 34.8955 35.5463C34.8228 35.4802 34.6875 35.4549 34.49 35.4549H32.9048V36.1044H34.5265C34.7032 36.1044 34.8384 36.0791 34.9111 36.0131ZM34.6772 37.6318C34.9215 37.6318 35.067 37.6013 35.1502 37.5253C35.2021 37.4744 35.2229 37.3984 35.2229 37.3019C35.2229 37.2004 35.197 37.1244 35.1346 37.0635C35.0567 36.9976 34.9215 36.967 34.6928 36.967H32.9048V37.6318H34.6772Z" fill="#AFAFAF"/>
<path d="M41.5564 37.5456V38.5349H37.2578V34.5516H41.5199V35.5463H38.6299V36.0588H41.4367V37.0279H38.6299V37.5456H41.5564Z" fill="#AFAFAF"/>
<path d="M52.0987 34.5516V35.5513H50.3731V38.5349H48.949V35.5513H47.2285V34.5516H52.0987Z" fill="#AFAFAF"/>
<path d="M64.5377 34.5516V35.5614H61.7674V36.1247H64.4078V37.1244H61.7674V38.5349H60.3691V34.5516H64.5377Z" fill="#AFAFAF"/>
<path d="M71.5802 35.5513V34.5516H66.71V35.5513H68.4305V38.5349H69.8547V35.5513H71.5802Z" fill="#AFAFAF"/>
<path d="M76.8941 34.5516V38.5349H75.501V37.0888H73.4115V38.5349H72.0186V34.5516H73.4115V36.0029H75.501V34.5516H76.8941Z" fill="#AFAFAF"/>
<path d="M82.0173 38.5349V37.5456H79.0909V37.0279H81.8977V36.0588H79.0909V35.5463H81.9809V34.5516H77.7188V38.5349H82.0173Z" fill="#AFAFAF"/>
<path d="M90.6342 34.5516H91.9798L90.4887 38.5349H88.961C88.961 38.5349 88.1441 36.1552 88.1386 36.0891C88.1346 36.1552 87.3122 38.5349 87.3122 38.5349H85.7899L84.2617 34.5516H85.7736C85.7736 34.5516 86.6584 37.0583 86.6584 37.1192C86.6584 37.0583 87.474 34.5516 87.474 34.5516H88.9351C88.9351 34.5516 89.7561 37.0583 89.7561 37.1192C89.7561 37.0583 90.6342 34.5516 90.6342 34.5516Z" fill="#AFAFAF"/>
<path fill-rule="evenodd" clip-rule="evenodd" d="M94.6496 34.4603C92.8513 34.4603 91.9053 35.2926 91.9053 36.5155C91.9053 37.8956 92.8975 38.5958 94.6496 38.5958C96.5783 38.5958 97.3884 37.784 97.3884 36.5155C97.3884 35.2266 96.4736 34.4603 94.6496 34.4603ZM94.6496 37.5759C93.6261 37.5759 93.3297 37.1649 93.3297 36.5306C93.3297 35.9065 93.6519 35.4955 94.6441 35.4955C95.7315 35.4955 95.9748 35.9572 95.9748 36.5306C95.9748 37.1395 95.6785 37.5759 94.6496 37.5759Z" fill="#AFAFAF"/>
<path fill-rule="evenodd" clip-rule="evenodd" d="M102.535 34.9577C102.722 35.1454 102.81 35.4042 102.81 35.7644C102.81 36.074 102.732 36.3378 102.602 36.5155C102.457 36.7083 102.234 36.8707 101.958 36.9112L103.189 38.5349H101.641L100.627 37.1294H99.3643V38.5349H97.9766V34.5516H101.225C101.869 34.5516 102.291 34.704 102.535 34.9577ZM101.413 36.0994C101.448 36.0385 101.459 35.9572 101.459 35.8913C101.459 35.8151 101.448 35.7341 101.413 35.6832C101.339 35.5513 101.194 35.5158 100.975 35.5158H99.3698V36.2415H101.001C101.225 36.2415 101.36 36.2009 101.413 36.0994Z" fill="#AFAFAF"/>
<path d="M107.53 38.5349V37.4744H105.045V34.5516H103.637V38.5349H107.53Z" fill="#AFAFAF"/>
<path fill-rule="evenodd" clip-rule="evenodd" d="M113.041 36.4697C113.041 37.0888 112.979 37.4238 112.793 37.7384C112.511 38.2406 111.955 38.5349 110.973 38.5349H108.083V34.5516H110.941C111.919 34.5516 112.496 34.8206 112.782 35.2824C112.984 35.5919 113.041 35.9217 113.041 36.4697ZM110.708 37.5557C111.149 37.5557 111.4 37.4541 111.55 37.231C111.644 37.0939 111.67 36.7742 111.67 36.4952C111.665 36.2415 111.633 35.9725 111.55 35.8507C111.389 35.6122 111.145 35.526 110.719 35.526H109.476V37.5557H110.708Z" fill="#AFAFAF"/>
<path d="M57.2842 57.9076H55.1304C55.1304 57.9076 53.7249 61.9182 53.7249 62.0156C53.7249 61.9182 52.411 57.9076 52.411 57.9076H50.0741C50.0741 57.9076 48.7684 61.9182 48.7684 62.0156C48.7684 61.9182 47.3547 57.9076 47.3547 57.9076H44.9346L47.3795 64.2807H49.8162C49.8162 64.2807 51.1302 60.4731 51.1385 60.3676C51.1469 60.4731 52.4524 64.2807 52.4524 64.2807H54.8974L57.2842 57.9076Z" fill="#AFAFAF"/>
<path d="M60.2314 64.2807V57.9076H57.9443V64.2807H60.2314Z" fill="#AFAFAF"/>
<path d="M69.1269 57.9076V64.2807H66.8981L63.6631 60.7329V64.2807H61.5176V57.9076H63.8626L66.9978 61.3743V57.9076H69.1269Z" fill="#AFAFAF"/>
<path d="M78.0361 64.2807V57.9076H75.9071V61.3743L72.772 57.9076H70.4268V64.2807H72.5723V60.7329L75.8074 64.2807H78.0361Z" fill="#AFAFAF"/>
<path d="M86.2142 62.6975V64.2807H79.3359V57.9076H86.1557V59.4988H81.5315V60.3189H86.0225V61.8695H81.5315V62.6975H86.2142Z" fill="#AFAFAF"/>
<path fill-rule="evenodd" clip-rule="evenodd" d="M95.0045 59.848C95.0045 59.2715 94.8631 58.8575 94.5641 58.5571C94.1726 58.1512 93.4998 57.9076 92.4682 57.9076H87.2705V64.2807H89.4915V62.0318H91.5126L93.1342 64.2807H95.6121L93.6412 61.6828C94.0816 61.6178 94.4391 61.358 94.6728 61.0495C94.8794 60.7654 95.0045 60.3432 95.0045 59.848ZM92.842 60.051C92.842 60.1565 92.8257 60.2864 92.7672 60.3838C92.6843 60.5462 92.4682 60.6111 92.1107 60.6111H89.4996V59.4501H92.0686C92.4179 59.4501 92.6517 59.5069 92.7672 59.7181C92.8257 59.7993 92.842 59.9292 92.842 60.051Z" fill="#AFAFAF"/>
<path d="M50.6444 46.6638L49.7425 43.9539L48.8405 46.6638H45.9219L48.2831 48.3385L47.3813 51.0483L49.7425 49.3736L52.1036 51.0483L51.2018 48.3385L53.563 46.6638H50.6444Z" fill="#AFAFAF"/>
<path d="M60.1544 43.9522L61.0747 46.662H64.0529L61.6435 48.3369L62.5639 51.0466L60.1544 49.3719L57.745 51.0466L58.6654 48.3369L56.2559 46.662H59.2341L60.1544 43.9522Z" fill="#AFAFAF"/>
<path d="M71.4038 46.662L70.4836 43.9522L69.5633 46.662H66.585L68.9945 48.3369L68.0741 51.0466L70.4836 49.3719L72.893 51.0466L71.9726 48.3369L74.3821 46.662H71.4038Z" fill="#AFAFAF"/>
<path d="M80.8136 43.9522L81.7339 46.662H84.7121L82.3027 48.3369L83.2231 51.0466L80.8136 49.3719L78.4042 51.0466L79.3245 48.3369L76.915 46.662H79.8934L80.8136 43.9522Z" fill="#AFAFAF"/>
<path d="M92.1286 46.662L91.226 43.9522L90.3235 46.662H87.4053L89.7662 48.3369L88.8651 51.0466L91.226 49.3719L93.587 51.0466L92.6859 48.3369L95.0468 46.662H92.1286Z" fill="#AFAFAF"/>
<path d="M129.994 14.8912C130.857 12.7489 130.482 10.2852 129.687 8.21337C128.849 6.03336 127.392 3.85894 125.215 2.71234C125.106 5.00991 125.825 7.27961 126.611 9.32639C127.318 11.1672 128.183 13.1284 129.615 14.6508C129.835 15.8042 130.003 16.9543 130.122 18.0992C129.647 16.89 128.879 15.7878 127.92 14.9015C126.684 13.7596 124.845 12.8788 123.12 13.3998C123.626 15.2616 124.777 17.0466 126.142 18.2986C127.216 19.2842 128.633 20.5469 130.302 20.5966C130.372 22.2819 130.332 23.9519 130.19 25.5991C129.954 24.3937 129.45 23.2587 128.72 22.4134C127.719 21.2518 126.233 19.833 124.337 20.0704C124.44 21.9548 125.211 23.8857 126.283 25.3365C127.134 26.4895 128.26 27.959 129.857 28.3387C129.601 29.9569 129.245 31.5482 128.792 33.1055C128.788 31.9131 128.519 30.7427 127.984 29.8039C127.229 28.4801 126.054 26.829 124.155 26.6999C123.876 28.5487 124.254 30.5698 125.015 32.1772C125.623 33.4621 126.434 35.1005 127.912 35.7785C127.29 37.4544 126.556 39.0836 125.714 40.6558C126.01 39.3005 125.998 37.8724 125.648 36.5872C125.166 34.8161 123.97 32.9554 122.048 32.4156C121.368 34.3713 121.462 36.5533 121.858 38.5407C122.182 40.1772 122.82 42.0991 124.25 43.1621C123.315 44.6359 122.28 46.0503 121.151 47.3961C121.758 46.0763 122.059 44.6328 121.897 43.3113C121.662 41.3867 121.109 39.3283 119.096 38.3025C117.953 40.2266 117.687 42.3851 117.591 44.5171C117.512 46.2407 117.766 48.3667 118.994 49.769C117.644 51.1376 116.19 52.4185 114.636 53.5997C115.639 52.343 116.342 50.8684 116.49 49.4101C116.701 47.3495 116.599 45.0813 114.724 43.569C113.123 45.2024 112.166 47.608 111.699 49.6974C111.284 51.5446 110.852 53.7312 111.837 55.5492C109.86 56.8101 107.747 57.9208 105.514 58.8616C107.086 57.7685 108.371 56.2687 108.984 54.7202C109.788 52.6908 110.284 50.2723 108.721 48.2397C106.625 49.5501 105.085 51.7855 103.871 53.8246C102.83 55.5743 101.752 57.9892 102.287 60.0728C101.051 60.4823 99.7824 60.8419 98.4844 61.1487L98.5618 61.4599C99.864 61.1519 101.138 60.7911 102.379 60.3804C103.248 62.8891 106.097 63.7182 108.401 64.084C111.684 64.6053 115.593 63.5953 118.396 61.5602C116.915 59.5195 113.898 59.3125 111.623 59.1563L111.593 59.1543C109.1 58.9833 106.403 59.2118 103.897 59.8478C106.792 58.7715 109.502 57.4181 112.002 55.8271L112.036 55.8802C113.405 58.0513 116.156 58.1362 118.314 57.999C121.243 57.813 124.624 56.0748 126.58 53.6722C124.739 52.096 122.022 52.537 119.915 52.8787L119.904 52.8805C117.554 53.2619 114.987 54.0937 112.831 55.3747C113.036 55.217 113.236 55.0502 113.432 54.8751C115.528 53.4162 117.46 51.7842 119.215 50.0048C119.24 50.0286 119.264 50.0519 119.289 50.0751C120.996 51.7379 123.474 51.2992 125.409 50.755C128.005 50.0252 130.697 47.8235 131.987 45.2958C129.987 44.2024 127.598 45.1033 125.74 45.8161C123.697 46.599 121.537 47.8517 119.876 49.449C120.047 49.238 120.212 49.0174 120.367 48.7892C121.909 47.0885 123.298 45.2673 124.519 43.3459L124.572 43.3779L124.586 43.3862C126.514 44.598 128.7 43.7181 130.432 42.8527C132.782 41.6785 134.671 39.0979 135.487 36.56C133.401 35.9081 131.342 37.1877 129.741 38.201C127.988 39.3099 126.213 40.8916 124.995 42.7057C125.084 42.5267 125.169 42.3436 125.246 42.1571C126.416 40.1637 127.41 38.0711 128.215 35.9004L128.257 35.9142L128.264 35.9169C130.018 36.5653 131.972 35.5533 133.245 34.4435C135.015 32.9 136.264 30.527 136.556 28.2088C134.727 27.9774 133.002 29.3595 131.823 30.5382C130.467 31.8959 129.248 33.5005 128.499 35.2831C128.554 35.0886 128.602 34.891 128.641 34.6913C129.322 32.6521 129.839 30.5491 130.179 28.3992L130.23 28.4058C132.079 28.698 133.789 27.3248 134.811 25.9919C136.249 24.1163 136.99 21.5204 136.804 19.1675C134.956 19.2938 133.548 21.0103 132.636 22.3991C131.579 24.0075 130.702 25.8279 130.319 27.7324C130.331 27.5801 130.338 27.4269 130.34 27.2733C130.622 25.0848 130.722 22.8515 130.63 20.5906C132.518 20.526 133.917 18.8148 134.637 17.2973C135.666 15.1269 135.832 12.3831 135.145 10.0709C133.347 10.5636 132.344 12.577 131.753 14.1269C131.07 15.914 130.595 17.8634 130.591 19.8013C130.493 18.1755 130.294 16.5368 129.994 14.8912Z" fill="#AFAFAF"/>
</svg>
